<?xml version="1.0" standalone="no"?>
<!DOCTYPE svg PUBLIC "-//W3C//DTD SVG 1.1//EN" "http://www.w3.org/Graphics/SVG/1.1/DTD/svg11.dtd" >
<svg>
<metadata>
Created by FontForge 20110222 at Fri Feb 17 12:28:39 2012
 By www-data
Copyleft 2002, 2003, 2005, 2008, 2009, 2010 Free Software Foundation.
</metadata>
<defs>
<font id="FreeSerif" horiz-adv-x="500" >
  <font-face 
    font-family="FreeSerif"
    font-weight="400"
    font-stretch="normal"
    units-per-em="1000"
    panose-1="2 2 6 3 5 4 5 2 3 4"
    ascent="800"
    descent="-200"
    x-height="450"
    cap-height="662"
    bbox="-70 -259 1000 900"
    underline-thickness="50"
    underline-position="-100"
    unicode-range="U+0020-1D7AA"
  />
    <missing-glyph />
    <glyph glyph-name="space" unicode=" " horiz-adv-x="250" 
 />
    <glyph glyph-name="exclam" unicode="!" horiz-adv-x="333" 
d="M189 176h-13q-10 122 -22 215t-18 136t-6 72q0 35 14 56t39 21q53 0 53 -80q0 -28 -6 -70t-18 -135.5t-23 -214.5zM183 98q22 0 38 -16t16 -39t-15.5 -37.5t-39.5 -14.5q-22 0 -37 14.5t-15 37.5t15.5 39t37.5 16z" />
    <glyph glyph-name="quotedbl" unicode="&#x22;" horiz-adv-x="408" 
d="M299 431h-21q-32 169 -32 204q0 17 12.5 29t30.5 12q17 0 29.5 -12t12.5 -28q0 -37 -32 -205zM130 431h-21q-32 169 -32 204q0 17 12.5 29t30.5 12q17 0 29.5 -12t12.5 -28q0 -37 -32 -205z" />
    <glyph glyph-name="numbersign" unicode="#" 
d="M471 271v-55h-109l-31 -216h-58l31 216h-134l-33 -216h-58l33 216h-107v55h116l21 134h-110v55h118l31 202h58l-31 -202h133l30 202h58l-30 -202h97v-55h-105l-20 -134h100zM333 405h-133l-21 -134h134z" />
    <glyph glyph-name="dollar" unicode="$" 
d="M52 512q0 64 45 103t133 49v63h34v-63q113 -13 161 -53v-111h-15q-13 64 -48 96.5t-98 40.5v-246q10 -6 38.5 -22t38 -22t31.5 -20.5t30 -23.5t22 -25t19 -30.5t9.5 -34.5t4.5 -43q0 -75 -48.5 -114.5t-144.5 -55.5v-87h-34v87q-63 2 -102 12.5t-84 38.5v130h15
q18 -79 59 -115.5t112 -37.5v282q-99 55 -138.5 98.5t-39.5 103.5zM229 407v230q-103 -21 -103 -103q0 -35 20.5 -60t82.5 -67zM264 293v-265q114 22 114 118q0 46 -22 74.5t-92 72.5z" />
    <glyph glyph-name="percent" unicode="%" horiz-adv-x="833" 
d="M669 371q49 0 76 -28t27 -79q0 -58 -23 -115t-63 -98q-51 -51 -117 -51q-54 0 -87 35.5t-33 93.5q0 94 67.5 168t152.5 74zM586 30q43 0 81 38t58.5 90.5t20.5 100.5q0 33 -20.5 56.5t-49.5 23.5q-46 0 -83 -52t-52.5 -106.5t-15.5 -86.5q0 -28 17 -46t44 -18zM282 662
q31 0 50 -13.5t42.5 -27t64.5 -13.5q47 0 81.5 15t74.5 53h39l-385 -689h-48l351 626q-52 -30 -110 -30q-39 0 -65 10q7 -25 7 -44q0 -93 -59.5 -176.5t-145.5 -83.5q-49 0 -83.5 37.5t-34.5 89.5q0 95 67.5 170.5t153.5 75.5zM282 632q-48 0 -96.5 -87.5t-48.5 -160.5
q0 -27 16.5 -44t42.5 -17q61 0 112 71.5t51 156.5q0 19 -9 49q-20 5 -33.5 11.5t-18 10.5t-8.5 7t-8 3z" />
    <glyph glyph-name="ampersand" unicode="&#x26;" horiz-adv-x="778" 
d="M491 555q0 -53 -35 -92t-120 -79q60 -117 132 -206q91 121 91 182q0 23 -13.5 32t-50.5 13v21h216v-21q-38 -5 -57 -16.5t-37 -42.5q-63 -112 -126 -196q69 -92 154 -92q27 0 46.5 11.5t43.5 41.5l15 -11q-22 -53 -62.5 -83t-88.5 -30q-82 0 -170 91q-56 -49 -105.5 -70
t-110.5 -21q-80 0 -125.5 40.5t-45.5 111.5q0 45 16.5 82.5t49.5 67t59.5 47t69.5 41.5q-35 97 -35 145q0 64 45 109t109 45q59 0 97 -34t38 -87zM321 416q61 33 89 67t28 76q0 37 -22.5 61t-57.5 24q-34 0 -55.5 -23t-21.5 -59q0 -62 40 -146zM252 343q-65 -42 -91.5 -78.5
t-26.5 -84.5q0 -58 38 -99.5t91 -41.5q59 0 141 65q-74 91 -152 239z" />
    <glyph glyph-name="quotesingle" unicode="'" horiz-adv-x="180" 
d="M101 431h-21q-32 169 -32 204q0 17 12.5 29t30.5 12q17 0 29.5 -12t12.5 -28q0 -37 -32 -205z" />
    <glyph glyph-name="parenleft" unicode="(" horiz-adv-x="333" 
d="M292 -177q-26 16 -54 38.5t-63.5 62.5t-62.5 85.5t-45.5 109.5t-18.5 133q0 72 18.5 136.5t43.5 107t63.5 82t63.5 58.5t58 40l9 -16q-44 -36 -71 -65t-52 -75.5t-36 -111t-11 -153.5q0 -93 11 -160t36 -114.5t52 -77.5t71 -64z" />
    <glyph glyph-name="parenright" unicode=")" horiz-adv-x="333" 
d="M41 676q26 -16 54 -38.5t63.5 -62.5t62.5 -85.5t45.5 -109.5t18.5 -133q0 -72 -18.5 -136.5t-43.5 -107t-63.5 -82t-63.5 -58.5t-58 -40l-9 16q44 36 71 65t52 75.5t36 111t11 153.5q0 93 -11 160t-36 114.5t-52 77.5t-71 64z" />
    <glyph glyph-name="asterisk" unicode="*" 
d="M214 302q0 10 13.5 53.5t13.5 100.5q-39 -24 -64 -52t-37.5 -40.5t-34.5 -12.5q-36 0 -36 35q0 17 13 25.5t32 12t53.5 16t66.5 31.5q-39 20 -84.5 31t-63 20t-17.5 33q0 15 10 25.5t24 10.5q16 0 28.5 -9t21.5 -22t32.5 -34t55.5 -40q0 57 -12.5 101t-12.5 54
q0 15 10 25t25 10t25.5 -10.5t10.5 -26.5q0 -13 -13.5 -54.5t-13.5 -100.5q35 22 61.5 50.5t41 43.5t32.5 15q16 0 26 -11t10 -28q0 -21 -20 -30t-64 -21.5t-79 -32.5q30 -19 64 -30.5t53.5 -14.5t33 -12t13.5 -26t-9.5 -27t-25.5 -10q-21 0 -35 12.5t-40.5 41t-61.5 52.5
q0 -57 14 -101.5t14 -49.5q0 -16 -11.5 -28t-27.5 -12q-14 0 -24.5 11t-10.5 26z" />
    <glyph glyph-name="plus" unicode="+" horiz-adv-x="564" 
d="M249 286v220h66v-220h219v-66h-219v-220h-66v220h-219v66h219z" />
    <glyph glyph-name="comma" unicode="," horiz-adv-x="250" 
d="M142 -2l-8 -2q-9 -2 -19 -2q-27 0 -43 13.5t-16 37.5q0 25 16.5 41t42.5 16q34 0 57 -25.5t23 -63.5q0 -45 -31 -87t-81 -67l-9 19q82 56 82 106q0 14 -14 14z" />
    <glyph glyph-name="hyphen" unicode="-" horiz-adv-x="333" 
d="M39 257h246v-63h-246v63z" />
    <glyph glyph-name="period" unicode="." horiz-adv-x="250" 
d="M125 100q23 0 39.5 -17t16.5 -40q0 -22 -17 -38t-40 -16q-22 0 -38 16t-16 38q0 23 16.5 40t38.5 17z" />
    <glyph glyph-name="slash" unicode="/" horiz-adv-x="278" 
d="M287 676l-228 -690h-68l229 690h67z" />
    <glyph glyph-name="zero" unicode="0" 
d="M250 -14q-102 0 -164 98t-62 252q0 145 62 242.5t168 97.5q98 0 160 -96t62 -250q0 -152 -62 -248t-164 -96zM251 650q-131 0 -131 -323q0 -315 130 -315t130 316q0 157 -33 239.5t-96 82.5z" />
    <glyph glyph-name="one" unicode="1" 
d="M183 593q-18 0 -72 -22v14l180 91l8 -2v-600q0 -36 18 -47t77 -12v-15h-276v15q56 2 75.5 16.5t19.5 61.5v453q0 47 -30 47z" />
    <glyph glyph-name="two" unicode="2" 
d="M31 477q5 23 10 40t21.5 49.5t37 54t57 38.5t82.5 17q78 0 131.5 -51t53.5 -126q0 -113 -128 -247l-168 -176h239q34 0 50.5 11.5t44.5 54.5l13 -5l-55 -137h-390v12l178 189q130 138 130 260q0 63 -39 102t-102 39q-52 0 -83.5 -28.5t-61.5 -101.5z" />
    <glyph glyph-name="three" unicode="3" 
d="M81 78q23 0 68.5 -28t79.5 -28q55 0 93 43t38 106q0 39 -13.5 69t-34.5 46.5t-50 27t-54.5 13.5t-54.5 3v13q34 12 58.5 23.5t51.5 31t41.5 47.5t14.5 64q0 47 -30.5 77t-79.5 30q-47 0 -82.5 -25.5t-66.5 -80.5l-15 4q26 71 70.5 116.5t126.5 45.5q69 0 112.5 -38
t43.5 -99q0 -41 -21 -72t-73 -66q60 -26 94 -66.5t34 -115.5q0 -106 -78.5 -169.5t-197.5 -63.5q-52 0 -82.5 15.5t-30.5 41.5q0 16 10.5 25.5t27.5 9.5z" />
    <glyph glyph-name="four" unicode="4" 
d="M472 231v-64h-102v-167h-77v167h-281v64l314 445h44v-445h102zM292 231v343l-240 -343h240z" />
    <glyph glyph-name="five" unicode="5" 
d="M357 194q0 53 -23.5 94t-57 63.5t-75 37t-72 19t-53.5 4.5q-12 0 -12 8q0 3 1 5l109 237h209q16 0 25.5 5t20.5 21l9 -7l-38 -89q-4 -9 -23 -9h-196l-42 -85q146 -26 217 -84.5t71 -171.5q0 -59 -18.5 -105t-47 -74t-66 -46t-72 -24.5t-69.5 -6.5q-56 0 -89 16.5
t-33 45.5q0 37 43 37q28 0 72.5 -31t70.5 -31q59 0 99 49.5t40 121.5z" />
    <glyph glyph-name="six" unicode="6" 
d="M258 -14q-101 0 -162.5 80.5t-61.5 212.5q0 41 8 84.5t35 99t70 99.5t120.5 78.5t178.5 43.5l2 -16q-118 -19 -197 -95.5t-99 -189.5q47 28 71 36.5t57 8.5q86 0 137 -56.5t51 -152.5q0 -103 -58.5 -168t-151.5 -65zM242 382q-68 0 -91.5 -30t-23.5 -89q0 -116 38 -182.5
t104 -66.5q53 0 81 44.5t28 126.5q0 94 -35.5 145.5t-100.5 51.5z" />
    <glyph glyph-name="seven" unicode="7" 
d="M449 662v-16l-212 -654h-65l198 596h-217q-41 0 -62.5 -15t-53.5 -66l-17 8l59 147h370z" />
    <glyph glyph-name="eight" unicode="8" 
d="M290 371q90 -67 122.5 -112.5t32.5 -103.5q0 -77 -53.5 -123t-143.5 -46q-85 0 -138.5 46t-53.5 119q0 51 24.5 85.5t105.5 95.5q-79 69 -101.5 103t-22.5 83q0 68 54 113t136 45q75 0 123.5 -40t48.5 -102q0 -51 -30 -87t-104 -76zM212 312q-44 -35 -62 -70t-18 -83
q0 -65 35 -105t92 -40q49 0 79.5 30.5t30.5 79.5q0 16 -3.5 30t-7 24.5t-14 23.5t-17 20.5t-23.5 21.5t-25.5 20t-32 23t-34.5 25zM261 389q1 1 13.5 9.5t18 13.5t17 15.5t17.5 20t13.5 23t11 30t3.5 34.5q0 52 -30 82.5t-81 30.5q-47 0 -77.5 -28t-30.5 -71q0 -42 29 -79
t96 -81z" />
    <glyph glyph-name="nine" unicode="9" 
d="M59 -22l-3 20q114 20 193.5 97t110.5 199q-74 -57 -150 -57q-81 0 -130.5 56t-49.5 147q0 101 59.5 168.5t148.5 67.5q97 0 159 -79t62 -203q0 -40 -7 -82t-32.5 -99.5t-66.5 -103t-117 -82.5t-177 -49zM246 280q19 0 43 5.5t48.5 24t24.5 45.5v39q0 254 -132 254
q-31 0 -53 -16.5t-33.5 -43.5t-16.5 -55t-5 -59q0 -89 33.5 -141.5t90.5 -52.5z" />
    <glyph glyph-name="colon" unicode=":" horiz-adv-x="278" 
d="M136 459q23 0 39.5 -17t16.5 -40q0 -22 -17 -38t-40 -16q-22 0 -38 16t-16 38q0 23 16.5 40t38.5 17zM136 100q23 0 39.5 -17t16.5 -40q0 -22 -17 -38t-40 -16q-22 0 -38 16t-16 38q0 23 16.5 40t38.5 17z" />
    <glyph glyph-name="semicolon" unicode=";" horiz-adv-x="278" 
d="M166 -2l-8 -2q-9 -2 -19 -2q-27 0 -43 13.5t-16 37.5q0 25 16.5 41t42.5 16q34 0 57 -25.5t23 -63.5q0 -45 -31 -87t-81 -67l-9 19q82 56 82 106q0 14 -14 14zM136 459q23 0 39.5 -17t16.5 -40q0 -22 -17 -38t-40 -16q-22 0 -38 16t-16 38q0 23 16.5 40t38.5 17z" />
    <glyph glyph-name="less" unicode="&#x3c;" horiz-adv-x="564" 
d="M536 -10l-508 230v66l508 230v-72l-420 -191l420 -191v-72z" />
    <glyph glyph-name="equal" unicode="=" horiz-adv-x="564" 
d="M534 386v-66h-504v66h504zM534 186v-66h-504v66h504z" />
    <glyph glyph-name="greater" unicode="&#x3e;" horiz-adv-x="564" 
d="M28 516l508 -230v-66l-508 -230v72l420 191l-420 191v72z" />
    <glyph glyph-name="question" unicode="?" horiz-adv-x="444" 
d="M230 676q76 0 130 -42.5t54 -112.5q0 -36 -17 -73.5t-34 -61t-54 -68.5q-50 -64 -65 -154h-17q0 19 1.5 35t5.5 33t6 26t9.5 28.5t9.5 25t13 29t13 29.5q37 85 37 156q0 50 -31.5 85t-76.5 35q-37 0 -66 -19t-29 -43q0 -9 19 -33t19 -41q0 -18 -11.5 -29.5t-29.5 -11.5
q-48 0 -48 62t46.5 103.5t115.5 41.5zM237 99q22 0 38 -16.5t16 -38.5q0 -23 -15.5 -37.5t-39.5 -14.5q-22 0 -37 14.5t-15 36.5q0 24 15 40t38 16z" />
    <glyph glyph-name="at" unicode="@" horiz-adv-x="921" 
d="M482 645q-126 0 -204 -93.5t-78 -228.5q0 -130 82 -214t210 -84q89 0 196 48l12 -30q-73 -33 -118.5 -45t-98.5 -12q-155 0 -261 98t-106 242q0 146 106.5 248t258.5 102q139 0 233.5 -84.5t94.5 -208.5q0 -97 -55 -168.5t-129 -71.5q-36 0 -61.5 20t-29.5 53
q-54 -72 -125 -72q-37 0 -62.5 32.5t-25.5 79.5q0 90 56.5 171t139.5 81q26 0 40.5 -10.5t31.5 -41.5l10 38h69l-65 -254q-2 -12 -2 -18q0 -46 39 -46q49 0 89 61t40 136q0 112 -84.5 192t-202.5 80zM572 406q0 31 -13 44.5t-31 13.5q-41 0 -88.5 -55.5t-47.5 -136.5
q0 -39 16 -62t44 -23q48 0 84 75t36 144z" />
    <glyph glyph-name="A" unicode="A" horiz-adv-x="722" 
d="M706 19v-19h-255v19q40 1 55 8t15 26q0 24 -19 67l-41 96h-262l-46 -117q-8 -21 -8 -39q0 -41 68 -41v-19h-198v19q37 2 57.5 28.5t66.5 135.5l208 491h20l249 -568q24 -55 40 -70t50 -17zM216 257h231l-116 275z" />
    <glyph glyph-name="B" unicode="B" horiz-adv-x="667" 
d="M593 180q0 -30 -11 -59t-36.5 -57.5t-75.5 -46t-119 -17.5h-334v19q62 2 79 18t17 72v444q0 55 -16.5 70.5t-79.5 19.5v19h280q262 0 262 -170q0 -33 -12 -58.5t-24.5 -39t-38.5 -25.5t-33 -13.5t-29 -7.5l34.5 -9t42 -17t47.5 -30t32 -45.5t15 -66.5zM278 37q45 0 78 6
t62 20.5t44.5 43.5t15.5 72q0 41 -15.5 69.5t-37.5 43.5t-61 23t-69 9.5t-80 1.5v-248q0 -24 13 -32.5t50 -8.5zM215 366h95q70 0 108.5 31.5t38.5 90.5q0 67 -45 102t-131 35h-44q-22 0 -22 -30v-229z" />
    <glyph glyph-name="C" unicode="C" horiz-adv-x="667" 
d="M28 325q0 156 96 253.5t239 97.5q64 0 120 -16.5t65 -16.5q33 0 42 33h21l9 -226h-23q-55 186 -215 186q-109 0 -173.5 -81t-64.5 -217q0 -87 22.5 -150.5t60.5 -96t78.5 -47t86.5 -14.5q118 0 223 101l18 -18q-46 -61 -117 -94t-156 -33q-148 0 -240 93t-92 246z" />
    <glyph glyph-name="D" unicode="D" horiz-adv-x="722" 
d="M685 334q0 -45 -10 -88t-37 -89t-69 -79.5t-111.5 -55.5t-157.5 -22h-284v19q57 4 72.5 20t15.5 70v444q0 55 -14.5 70t-73.5 20v19h270q91 0 162.5 -20.5t115 -53t72 -77t39 -87.5t10.5 -90zM576 327q0 43 -8.5 82.5t-30.5 80t-57 69.5t-92 47.5t-130 18.5
q-31 0 -41.5 -8t-10.5 -31v-508q0 -24 11 -32.5t41 -8.5q318 0 318 290z" />
    <glyph glyph-name="E" unicode="E" horiz-adv-x="611" 
d="M201 80q0 -29 16.5 -36t88.5 -7h27q107 0 153 25.5t83 106.5h28l-45 -169h-540v19q55 4 71 20.5t16 69.5v444q0 53 -16 69.5t-71 20.5v19h531l3 -143h-25q-13 67 -40 86t-112 19h-135q-20 0 -26.5 -6.5t-6.5 -27.5v-222h154q64 0 82.5 19.5t27.5 75.5h23v-232h-23
q-10 62 -29 79t-81 17h-154v-247z" />
    <glyph glyph-name="F" unicode="F" horiz-adv-x="556" 
d="M479 231h-23q-9 61 -29 78.5t-81 17.5h-145v-208q0 -61 16.5 -79t74.5 -21v-19h-280v19q57 4 72 21.5t15 79.5v433q0 53 -16 69.5t-71 20.5v19h531l3 -143h-25q-13 67 -40 86t-112 19h-136q-20 0 -26 -6.5t-6 -27.5v-222h145q60 0 80.5 17.5t29.5 77.5h23v-232z" />
    <glyph glyph-name="G" unicode="G" horiz-adv-x="722" 
d="M392 636q-57 0 -101 -20.5t-71 -52.5t-44 -75t-23.5 -82.5t-6.5 -79.5q0 -139 70.5 -219.5t192.5 -80.5q54 0 93.5 17.5t39.5 41.5v162q0 56 -15.5 70.5t-72.5 18.5v18h255v-18q-44 -4 -57 -18.5t-13 -58.5v-203q-30 -26 -108.5 -48t-142.5 -22q-45 0 -90 9t-94 33
t-86 60.5t-61.5 97.5t-24.5 139q0 153 96.5 252t246.5 99q58 0 114.5 -16.5t65.5 -16.5q16 0 28 9.5t17 23.5h22l8 -211h-23q-32 78 -80 124.5t-135 46.5z" />
    <glyph glyph-name="H" unicode="H" horiz-adv-x="722" 
d="M209 359h303v194q0 54 -15 69.5t-73 20.5v19h278v-19q-58 -5 -73 -20.5t-15 -69.5v-444q0 -53 16 -69t72 -21v-19h-278v19q58 4 73 21t15 80v195h-303v-206q0 -53 16 -69t72 -21v-19h-278v19q58 4 73 21t15 80v433q0 54 -15 69.5t-73 20.5v19h278v-19q-58 -5 -73 -20.5
t-15 -69.5v-194z" />
    <glyph glyph-name="I" unicode="I" horiz-adv-x="333" 
d="M115 109v444q0 55 -16.5 70.5t-80.5 19.5v19h297v-19q-63 -3 -80.5 -19t-17.5 -71v-444q0 -55 18 -71.5t80 -18.5v-19h-297v19q63 2 80 18t17 72z" />
    <glyph glyph-name="J" unicode="J" horiz-adv-x="389" 
d="M59 108q21 0 33 -13t16 -29t11 -29t19 -13q38 0 38 66v463q0 55 -16 70.5t-77 19.5v19h287v-19q-61 -4 -76.5 -19.5t-15.5 -70.5v-370q0 -94 -44 -145.5t-125 -51.5q-43 0 -71 20t-28 52q0 20 14.5 35t34.5 15z" />
    <glyph glyph-name="K" unicode="K" horiz-adv-x="722" 
d="M413 643v19h262v-19q-52 -4 -77.5 -16.5t-74.5 -61.5l-190 -188l233 -250q68 -73 93 -90t64 -18v-19h-305v19q3 0 12 0.5t14 1t12.5 1.5t12.5 2.5t9.5 4t7 6t2.5 7.5q0 18 -36.5 66t-93.5 104l-106 105l-26 -21v-187q0 -55 16 -70.5t74 -19.5v-19h-282v19q59 4 74.5 21.5
t15.5 79.5v433q0 53 -16 69.5t-74 20.5v19h284v-19q-61 -4 -76.5 -19.5t-15.5 -70.5v-205l177 161q78 72 78 103q0 15 -9.5 21.5t-32.5 8.5q-14 0 -26 1z" />
    <glyph glyph-name="L" unicode="L" horiz-adv-x="611" 
d="M354 39q26 0 48.5 3t39.5 6.5t33 11.5l26 13t20.5 16.5t16 16.5t12.5 18.5t9 17.5t8 17.5t6 14.5h25l-48 -174h-538v19q55 4 71 20.5t16 69.5v444q0 53 -16 69.5t-71 20.5v19h282v-19q-59 -4 -76 -20.5t-17 -69.5v-473q0 -26 15.5 -33.5t70.5 -7.5h67z" />
    <glyph glyph-name="M" unicode="M" horiz-adv-x="889" 
d="M674 573l-256 -573h-14l-251 550v-403q0 -76 18 -100.5t76 -27.5v-19h-235v19q62 4 79.5 27.5t17.5 100.5v406q0 55 -16.5 70.5t-78.5 19.5v19h198l231 -505l221 505h199v-19q-56 -5 -71.5 -21t-15.5 -69v-444q0 -53 16 -69.5t71 -20.5v-19h-280v19q59 4 75 21.5t16 79.5
v453z" />
    <glyph glyph-name="N" unicode="N" horiz-adv-x="722" 
d="M707 643q-28 -3 -41.5 -6.5t-28 -15.5t-20 -37.5t-5.5 -68.5v-526h-17l-442 550v-392q0 -76 18 -100.5t76 -27.5v-19h-235v19q62 4 79.5 27.5t17.5 100.5v441q-30 35 -47.5 45t-49.5 10v19h171l385 -484v337q0 76 -18.5 99.5t-77.5 28.5v19h235v-19z" />
    <glyph glyph-name="O" unicode="O" horiz-adv-x="722" 
d="M355 -14q-135 0 -228 95.5t-93 249.5q0 151 92 248t235 97q144 0 235.5 -96.5t91.5 -252.5q0 -151 -92.5 -246t-240.5 -95zM574 328q0 72 -14 128t-35.5 90t-50.5 56t-56.5 30t-56.5 8q-49 0 -88 -21t-61.5 -52.5t-37.5 -74.5t-20.5 -82.5t-5.5 -80.5q0 -51 10 -100
t32 -98t65.5 -79t103.5 -30q61 0 105.5 30t67 79t32.5 98t10 99z" />
    <glyph glyph-name="P" unicode="P" horiz-adv-x="556" 
d="M542 481q0 -26 -6 -50t-23.5 -51t-46.5 -46.5t-79 -32.5t-116 -13q-30 0 -69 3v-182q0 -55 17.5 -71.5t76.5 -18.5v-19h-280v19q57 5 70.5 21.5t13.5 79.5v433q0 54 -14 69t-70 21v19h264q45 0 87 -8.5t83.5 -27.5t66.5 -56t25 -89zM202 591v-260q34 -3 57 -3
q174 0 174 147q0 77 -48 113.5t-149 36.5q-20 0 -27 -7t-7 -27z" />
    <glyph glyph-name="Q" unicode="Q" horiz-adv-x="722" 
d="M688 331q0 -55 -12 -103t-30.5 -80.5t-44 -59.5t-49.5 -43t-51 -28t-43.5 -16.5t-31.5 -7.5q61 -79 125 -114.5t150 -37.5v-18q-16 -1 -41 -1q-38 0 -73.5 3.5t-63 8t-54.5 15t-45 17t-39.5 21.5t-32 22t-27.5 24t-22 22.5t-20.5 23.5t-17.5 20q-100 34 -165.5 114
t-65.5 216q0 152 92 249.5t235 97.5t235 -97t92 -248zM574 333q0 140 -57.5 223.5t-152.5 83.5q-50 0 -89 -20.5t-62 -52t-38.5 -73.5t-21 -80.5t-5.5 -78.5q0 -88 20 -152.5t53 -97.5t67.5 -48t72.5 -15q49 0 87.5 20.5t61.5 52.5t38 74.5t20.5 82.5t5.5 81z" />
    <glyph glyph-name="R" unicode="R" horiz-adv-x="667" 
d="M293 662q43 0 82 -7t80.5 -24.5t66.5 -54.5t25 -90q0 -133 -176 -166q-3 -1 -5 -1l206 -253q21 -25 39.5 -35t47.5 -12v-19h-161l-238 308l-56 -2v-197q0 -54 16 -70t74 -20v-19h-277v19q56 4 70.5 21.5t14.5 79.5v433q0 53 -14.5 68.5t-70.5 21.5v19h276zM204 343
q121 2 177.5 32t56.5 113q0 70 -44.5 103.5t-138.5 33.5q-30 0 -40.5 -7.5t-10.5 -28.5v-246z" />
    <glyph glyph-name="S" unicode="S" horiz-adv-x="556" 
d="M390 135q0 47 -33 83.5t-80 62.5t-93.5 53.5t-79.5 70.5t-33 100q0 76 51.5 123.5t121.5 47.5q42 0 91 -17t59 -17q26 0 32 34h21l22 -213h-25q-24 88 -73.5 130t-109.5 42q-46 0 -75 -26t-29 -67q0 -40 34 -76t113 -80q99 -53 143 -104.5t44 -113.5q0 -77 -59 -129.5
t-145 -52.5q-50 0 -101.5 17t-63.5 17q-11 0 -19 -9.5t-9 -23.5h-22l-30 212h23q37 -91 86 -134t116 -43q55 0 89 31.5t34 81.5z" />
    <glyph glyph-name="T" unicode="T" horiz-adv-x="611" 
d="M254 620h-54q-84 0 -112.5 -23t-46.5 -105h-24l6 170h564l6 -170h-24q-17 83 -45.5 105.5t-113.5 22.5h-54v-511q0 -55 17 -71t79 -19v-19h-292v19q62 4 78 20.5t16 80.5v500z" />
    <glyph glyph-name="U" unicode="U" horiz-adv-x="722" 
d="M206 233q0 -100 37.5 -151.5t134.5 -51.5q56 0 101 21.5t65 57.5q23 43 23 136v270q0 75 -18 99.5t-76 28.5v19h232v-19q-62 -8 -78 -30t-16 -98v-261q0 -59 -10.5 -103t-37 -83.5t-79 -60.5t-129.5 -21q-128 0 -189.5 62.5t-61.5 192.5v312q0 55 -15.5 70t-74.5 20v19
h283v-19q-60 -5 -75.5 -20.5t-15.5 -69.5v-320z" />
    <glyph glyph-name="V" unicode="V" horiz-adv-x="722" 
d="M697 662v-19q-37 -2 -52.5 -18t-39.5 -75l-222 -561h-15l-246 549q-29 66 -48.5 84.5t-57.5 20.5v19h266v-19q-28 -2 -29 -2q-46 -3 -46 -31q0 -20 41 -111l151 -338l147 367q19 48 19 73q0 21 -16 30.5t-57 11.5v19h205z" />
    <glyph glyph-name="W" unicode="W" horiz-adv-x="944" 
d="M932 662v-19q-40 -8 -54.5 -20t-28.5 -51q-83 -223 -112 -306t-92 -277h-15l-160 423l-154 -423h-15l-193 537q-25 70 -44.5 91.5t-58.5 25.5v19h245v-19q-38 -2 -51.5 -8.5t-13.5 -23.5q0 -18 11 -46l144 -376l107 282l-33 82q-24 60 -41 74.5t-60 15.5v19h267v-19
q-77 -1 -77 -35q0 -11 27 -81l132 -341l125 339q16 45 16 75q0 20 -15.5 29.5t-53.5 13.5v19h198z" />
    <glyph glyph-name="X" unicode="X" horiz-adv-x="722" 
d="M696 662v-19q-49 -3 -75.5 -19.5t-73.5 -74.5l-146 -182l192 -274q30 -43 50 -56t61 -18v-19h-297v19q41 4 59 10.5t18 20.5q0 22 -51 98l-95 140l-119 -148q-52 -65 -52 -86q0 -17 16 -24.5t60 -10.5v-19h-233v19q39 3 60 19t85 95l157 193l-109 160q-70 103 -100.5 129
t-80.5 28v19h302v-19l-28 -1q-48 -1 -48 -29q0 -32 85 -150l42 -59l113 138q40 50 40 69q0 17 -14.5 23.5t-55.5 8.5v19h238z" />
    <glyph glyph-name="Y" unicode="Y" horiz-adv-x="722" 
d="M703 662v-19q-39 -3 -67 -25.5t-71 -88.5l-148 -226v-194q0 -57 18 -72.5t85 -17.5v-19h-306v19q68 3 84.5 19.5t16.5 81.5v174l-131 192q-50 73 -76 104.5t-43 41.5t-43 11v19h280v-19q-71 -5 -71 -30q0 -19 17 -44l148 -222l143 226q14 23 14 37q0 18 -15 25t-54 8v19
h219z" />
    <glyph glyph-name="Z" unicode="Z" horiz-adv-x="611" 
d="M402 38q28 0 51 5t38.5 10t29 19t20 21t14.5 27.5t10 26.5t9 29h23l-24 -176h-564v15l437 609h-221q-51 0 -84 -10t-49.5 -32t-22.5 -40t-12 -51h-26l20 171h526v-15l-432 -609h257z" />
    <glyph glyph-name="bracketleft" unicode="[" horiz-adv-x="333" 
d="M299 -131v-25h-211v818h211v-25h-90q-24 0 -34.5 -10.5t-10.5 -33.5v-672q0 -52 49 -52h86z" />
    <glyph glyph-name="backslash" unicode="\" horiz-adv-x="296" 
d="M0 676h67l229 -690h-68z" />
    <glyph glyph-name="bracketright" unicode="]" horiz-adv-x="333" 
d="M34 637v25h211v-818h-211v25h90q24 0 34.5 10.5t10.5 33.5v672q0 52 -49 52h-86z" />
    <glyph glyph-name="asciicircum" unicode="^" horiz-adv-x="469" 
d="M92 297h-68l181 365h60l181 -365h-68l-143 289z" />
    <glyph glyph-name="underscore" unicode="_" 
d="M500 -125h-500v50h500v-50z" />
    <glyph glyph-name="grave" unicode="`" horiz-adv-x="333" 
d="M242 507h-40l-154 97q-29 19 -29 43q0 31 34 31q19 0 42 -23z" />
    <glyph glyph-name="a" unicode="a" horiz-adv-x="444" 
d="M37 97q0 18 4 33.5t14 29t19 24.5t27 22.5t30 19t36.5 18t37.5 16t41 16.5t41 16v61q0 83 -76 83q-30 0 -51 -14.5t-21 -34.5q0 -8 2.5 -22t2.5 -18q0 -17 -13.5 -29.5t-31.5 -12.5q-17 0 -30 13t-13 30q0 47 48.5 79.5t119.5 32.5q82 0 113 -39.5t31 -120.5v-195
q0 -33 6.5 -45.5t23.5 -12.5q21 0 44 19v-26q-26 -29 -45.5 -39.5t-44.5 -10.5q-31 0 -45.5 17t-18.5 56q-86 -73 -146 -73q-46 0 -75.5 30t-29.5 77zM287 123v145q-90 -33 -126 -64t-36 -75q0 -41 20 -61t43 -20q34 0 73 23q16 9 21 19t5 33z" />
    <glyph glyph-name="b" unicode="b" 
d="M153 681v-306q15 37 54 61t85 24q75 0 125.5 -62.5t50.5 -154.5q0 -107 -67.5 -180t-166.5 -73q-60 0 -112.5 20.5t-52.5 43.5v519q0 31 -9.5 41t-39.5 10q-11 0 -17 -1v16q77 19 145 44zM153 322v-252q0 -19 29 -33.5t68 -14.5q62 0 96 46t34 129q0 91 -34.5 145.5
t-93.5 54.5q-39 0 -69 -23t-30 -52z" />
    <glyph glyph-name="c" unicode="c" horiz-adv-x="444" 
d="M25 213q0 111 65.5 179t153.5 68q63 0 108.5 -30.5t45.5 -72.5q0 -17 -14 -29.5t-34 -12.5q-34 0 -47 46l-6 22q-8 28 -20 38t-39 10q-61 0 -98.5 -48.5t-37.5 -125.5q0 -86 43.5 -140.5t111.5 -54.5q43 0 74 21t67 73l14 -9q-10 -20 -17.5 -33t-27 -39t-38.5 -42
t-50 -29.5t-64 -13.5q-83 0 -136.5 62.5t-53.5 160.5z" />
    <glyph glyph-name="d" unicode="d" 
d="M344 -10l-4 3v64q-48 -67 -128 -67q-83 0 -134 59.5t-51 155.5q0 106 61 180.5t147 74.5q54 0 105 -43v156q0 31 -9 41t-37 10q-14 0 -22 -1v16q91 24 147 44l5 -2v-567q0 -35 8.5 -46t35.5 -11q5 0 23 1v-16zM251 42q38 0 63.5 21.5t25.5 38.5v230q0 40 -31 70t-71 30
q-57 0 -91 -51t-34 -136q0 -92 38 -147.5t100 -55.5z" />
    <glyph glyph-name="e" unicode="e" horiz-adv-x="444" 
d="M97 277q2 -63 17 -108.5t39 -68t48.5 -32t51.5 -9.5q48 0 83.5 24t71.5 81l16 -7q-31 -81 -86 -124t-126 -43q-86 0 -136.5 60.5t-50.5 163.5q0 111 58.5 178.5t150.5 67.5q76 0 118 -45.5t53 -137.5h-308zM99 309h204q-10 65 -31 90t-67 25q-90 0 -106 -115z" />
    <glyph glyph-name="f" unicode="f" horiz-adv-x="333" 
d="M341 580q-16 0 -27.5 11.5t-18 26t-20 26t-32.5 11.5q-57 0 -57 -89v-116h123v-32h-122v-314q0 -56 16 -71.5t77 -17.5v-15h-260v15q54 3 68.5 18.5t14.5 70.5v314h-82v32h82q2 112 42 172.5t134 60.5q45 0 74.5 -17.5t29.5 -44.5q0 -17 -12.5 -29t-29.5 -12z" />
    <glyph glyph-name="g" unicode="g" 
d="M73 54q0 19 13.5 35t75.5 74q-50 25 -71.5 56t-21.5 78q0 68 48.5 115.5t118.5 47.5q39 0 83.5 -16.5t73.5 -16.5h77v-39h-83q19 -43 19 -84q0 -69 -46.5 -112t-109.5 -43q-12 0 -57 5q-20 -6 -40 -27t-20 -36q0 -24 78 -27l129 -6q55 -2 88 -31t33 -76
q0 -72 -82.5 -120.5t-177.5 -48.5q-71 0 -122 28.5t-51 68.5q0 28 22.5 55.5t75.5 66.5q-31 15 -42 26t-11 27zM147 -2q-31 -37 -40 -53t-9 -33q0 -33 40 -53t106 -20q85 0 137 27t52 70q0 27 -28 38t-96 11q-101 0 -162 13zM329 265q0 17 -4 41t-14 54.5t-32 51t-53 20.5
q-35 0 -54.5 -25t-19.5 -69q0 -86 32 -125t70 -39q35 0 55 24.5t20 66.5z" />
    <glyph glyph-name="h" unicode="h" 
d="M157 343v-241q0 -52 12 -67t56 -20v-15h-216v15q43 6 53.5 20t10.5 67v471q0 32 -8.5 42t-37.5 10q-7 0 -17 -2v16q71 19 142 44l5 -3v-304q35 45 69 64.5t78 19.5q123 0 123 -159v-199q0 -52 9.5 -65.5t50.5 -21.5v-15h-212v15q43 4 55.5 20t12.5 67v198q0 106 -75 106
q-29 0 -54.5 -14.5t-56.5 -48.5z" />
    <glyph glyph-name="i" unicode="i" horiz-adv-x="278" 
d="M62 393q-22 0 -42 -3v15q70 20 155 55l4 -3v-355q0 -54 12.5 -68.5t61.5 -18.5v-15h-237v15q52 3 65.5 18t13.5 69v232q0 33 -7.5 46t-25.5 13zM128 683q22 0 37 -15t15 -36q0 -22 -15 -36.5t-37 -14.5q-21 0 -35.5 15t-14.5 36t15 36t35 15z" />
    <glyph glyph-name="j" unicode="j" horiz-adv-x="278" 
d="M77 393l-45 -3v16q80 25 156 54l5 -3v-457q0 -106 -43 -162t-126 -56q-41 0 -67.5 15.5t-26.5 39.5q0 16 12 27.5t29 11.5q21 0 46 -30t44 -30q30 0 39 31t9 108v379q0 32 -7.5 45.5t-24.5 13.5zM142 683q22 0 37 -15t15 -36q0 -22 -15 -36.5t-37 -14.5q-21 0 -35.5 15
t-14.5 36t15 36t35 15z" />
    <glyph glyph-name="k" unicode="k" 
d="M7 623v16q85 21 155 44l4 -2v-420l137 122q23 20 23 34q0 10 -10.5 14t-39.5 5v14h204v-15q-23 0 -36.5 -2.5t-38.5 -13.5t-58.5 -38t-82.5 -72l-29 -27l153 -194q31 -38 57.5 -54.5t59.5 -18.5v-15h-218v15q40 0 40 15q0 4 -3 9.5t-9.5 13t-8.5 11.5l-140 187v-171
q0 -36 11.5 -46t63.5 -19v-15h-234v15q54 9 64.5 18.5t10.5 48.5v482q0 36 -9 48.5t-34 12.5q-14 0 -32 -2z" />
    <glyph glyph-name="l" unicode="l" horiz-adv-x="278" 
d="M19 623v16q99 24 159 44l4 -2v-597q0 -41 13.5 -53.5t61.5 -15.5v-15h-236v15q47 4 62 18t15 54v477q0 35 -9 48t-33 13q-20 0 -37 -2z" />
    <glyph glyph-name="m" unicode="m" horiz-adv-x="778" 
d="M19 398v17q72 20 140 45l7 -2v-75q62 47 92 62t63 15q79 0 106 -84q78 84 163 84q116 0 116 -178v-206q0 -56 43 -59l26 -2v-15h-219v15q44 5 55 17t11 55v211q0 62 -16 86t-59 24q-66 0 -109 -61v-252q0 -47 14.5 -63t57.5 -17v-15h-224v15q43 3 55.5 16t12.5 55v217
q0 105 -66 105q-28 0 -62.5 -14t-55.5 -45v-282q0 -29 14 -39.5t54 -12.5v-15h-222v15q42 1 56 15t14 55v253q0 36 -7.5 50t-27.5 14q-15 0 -32 -4z" />
    <glyph glyph-name="n" unicode="n" 
d="M16 398v17q74 22 138 45l7 -2v-79q51 48 80.5 64.5t64.5 16.5q55 0 86.5 -39.5t31.5 -110.5v-229q0 -37 12 -49.5t49 -16.5v-15h-208v15q38 3 50.5 20t12.5 64v209q0 97 -73 97q-25 0 -46 -11.5t-57 -45.5v-281q0 -27 14 -38t52 -14v-15h-212v15q38 3 50 17.5t12 57.5
v248q0 37 -8 50.5t-29 13.5q-19 0 -27 -4z" />
    <glyph glyph-name="o" unicode="o" 
d="M250 460q96 0 158 -64t62 -162q0 -104 -64 -174t-158 -70t-156.5 67.5t-62.5 168.5q0 103 61.5 168.5t159.5 65.5zM119 275q0 -107 39 -182t102 -75q56 0 88 48t32 133q0 103 -40 168t-103 65q-53 0 -85.5 -43t-32.5 -114z" />
    <glyph glyph-name="p" unicode="p" 
d="M9 393v16q63 19 144 51l6 -2v-77q64 79 144 79q73 0 120 -60t47 -153q0 -109 -60.5 -183t-149.5 -74q-32 0 -53.5 9t-47.5 34v-157q0 -47 16 -60.5t72 -14.5v-18h-242v17q44 4 57 17t13 52v468q0 35 -8 46t-33 11q-16 0 -25 -1zM159 334v-246q0 -22 34.5 -44t69.5 -22
q54 0 87.5 51.5t33.5 134.5q0 87 -33.5 139.5t-89.5 52.5q-35 0 -68.5 -22t-33.5 -44z" />
    <glyph glyph-name="q" unicode="q" 
d="M360 425l54 32h11v-598q0 -32 11 -42.5t52 -19.5v-14h-236v17q53 4 71 19t18 57v188q-68 -74 -157 -74q-70 0 -115 60t-45 155q0 108 63.5 182t157.5 74q54 0 115 -36zM110 241q0 -43 10 -83t41 -73.5t80 -33.5q50 0 86 31q14 11 14 45v206q0 100 -93 100
q-64 0 -101 -51.5t-37 -140.5z" />
    <glyph glyph-name="r" unicode="r" horiz-adv-x="333" 
d="M296 362q-15 0 -37 17.5t-29 17.5q-20 0 -45 -29t-25 -53v-225q0 -43 17 -58t68 -17v-15h-240v15q48 9 59.5 20t11.5 49v250q0 33 -7.5 46.5t-26.5 13.5q-16 0 -35 -4v16q80 26 148 54l5 -2v-92q37 53 63 73.5t57 20.5q26 0 40.5 -14t14.5 -39q0 -21 -10.5 -33t-28.5 -12
z" />
    <glyph glyph-name="s" unicode="s" horiz-adv-x="389" 
d="M284 440q1 0 16 10h11l4 -136h-15q-17 67 -42 95t-68 28q-34 0 -55.5 -19t-21.5 -49q0 -43 43 -68l108 -64q45 -27 64.5 -54.5t19.5 -64.5q0 -52 -41.5 -90t-99.5 -38q-25 0 -67 9t-52 9q-15 0 -23 -12h-13v156h16q16 -70 38 -99q32 -41 89 -41q38 0 60.5 19.5t22.5 52.5
q0 45 -52 75l-58 33q-64 36 -90.5 69t-26.5 75q0 54 38.5 88.5t97.5 34.5q33 0 62 -9.5t35 -9.5z" />
    <glyph glyph-name="t" unicode="t" horiz-adv-x="278" 
d="M255 450v-32h-101v-286q0 -47 12 -68.5t40 -21.5q31 0 60 35l13 -11q-48 -76 -120 -76q-89 0 -89 127v301h-53q-4 3 -4 7q0 5 3 8t11.5 8.5t20.5 15t33 34.5t46 60q16 23 20 28q7 0 7 -13v-116h101z" />
    <glyph glyph-name="u" unicode="u" 
d="M479 50v-14q-78 -21 -137 -45l-4 2v83q-3 -3 -17.5 -18t-20.5 -20.5t-20.5 -17t-25.5 -16.5t-28 -9.5t-34 -4.5q-55 0 -88 35.5t-33 94.5v252q0 35 -13 48.5t-49 15.5v14h146v-326q0 -31 21 -53.5t50 -22.5q11 0 26 3t34.5 11.5t33 27t13.5 45.5v235q0 37 -13.5 49
t-60.5 14v17h158v-343q0 -35 11.5 -46t45.5 -11h5z" />
    <glyph glyph-name="v" unicode="v" 
d="M477 450v-15q-23 -2 -34 -15t-31 -63l-128 -321q-20 -50 -28 -50q-11 0 -26 47l-120 287q-32 77 -47 95t-44 20v15h196v-15q-26 -2 -36 -8t-10 -20q0 -16 9 -37l102 -256l99 259q6 15 6 30q0 28 -47 32v15h139z" />
    <glyph glyph-name="w" unicode="w" horiz-adv-x="722" 
d="M351 310q-27 80 -41.5 100.5t-47.5 24.5v15h203v-15q-35 -5 -46.5 -12t-11.5 -24q0 -13 17 -59l84 -224l90 222q17 42 17 66q0 13 -9 19.5t-35 11.5v15h123v-15q-15 -5 -21.5 -14t-19.5 -40l-138 -346q-20 -49 -28 -49t-24 43l-91 236l-112 -240q-18 -39 -25 -39
q-8 0 -26 44l-135 342q-15 38 -25 49.5t-28 13.5v15h180v-15q-26 -3 -36 -10t-10 -23q0 -15 6 -30l99 -261z" />
    <glyph glyph-name="x" unicode="x" 
d="M248 304q11 17 26 37.5t22.5 31t13 21.5t5.5 19q0 19 -40 22v15h158v-15q-51 -2 -81 -44l-83 -120l128 -196q22 -33 40.5 -46.5t41.5 -13.5v-15h-201v15q25 2 32.5 6.5t7.5 17.5q0 9 -6 18l-91 140l-79 -123q-20 -31 -20 -41q0 -18 40 -18v-15h-145v15q25 2 38.5 11
t34.5 40l114 165l-94 144q-18 28 -32.5 41t-24 16t-29.5 3v15h207v-15q-43 -1 -43 -22q0 -20 46 -89z" />
    <glyph glyph-name="y" unicode="y" 
d="M151 -134q28 0 59 62t31 91q0 13 -44 101l-132 284q-12 26 -51 32v14h206v-15q-32 -1 -45 -7t-13 -20q0 -15 10 -38l115 -253l97 276q4 9 4 17q0 25 -48 25v15h135v-15q-18 -2 -28.5 -11.5t-19.5 -33.5l-154 -408q-40 -108 -79.5 -154t-89.5 -46q-32 0 -53 16.5t-21 41.5
q0 18 13 31t30 13q22 0 47 -9t31 -9z" />
    <glyph glyph-name="z" unicode="z" horiz-adv-x="444" 
d="M272 30q39 0 62 5t36 22t18 32t12 50l18 -4l-14 -135h-377v15l266 405h-138q-45 0 -61 -16.5t-23 -71.5h-18l3 118h347v-15l-269 -405h138z" />
    <glyph glyph-name="braceleft" unicode="{" horiz-adv-x="480" 
d="M350 -181q-88 2 -126.5 29t-38.5 111v177q0 52 -17.5 75t-67.5 39q50 15 67.5 38t17.5 75v178q0 44 10 71.5t33 42t50.5 19.5t71.5 6v-11q-52 -13 -71.5 -40t-19.5 -83v-168q0 -62 -19 -88t-75 -41q56 -14 75 -40t19 -88v-168q0 -56 19.5 -83t71.5 -40v-11z" />
    <glyph glyph-name="bar" unicode="|" horiz-adv-x="200" 
d="M67 -14v690h66v-690h-66z" />
    <glyph glyph-name="braceright" unicode="}" horiz-adv-x="480" 
d="M130 680q88 -2 126.5 -29t38.5 -111v-177q0 -52 17.5 -75t67.5 -39q-50 -15 -67.5 -38t-17.5 -75v-178q0 -44 -10 -71.5t-33 -42t-50.5 -19.5t-71.5 -6v11q52 13 71.5 40t19.5 83v168q0 62 19 88t75 41q-56 14 -75 40t-19 88v168q0 56 -19.5 83t-71.5 40v11z" />
    <glyph glyph-name="asciitilde" unicode="~" horiz-adv-x="541" 
d="M163 320q50 0 113 -34t98 -34q23 0 38.5 11t35.5 40l54 -32q-34 -48 -61 -66.5t-62 -18.5q-50 0 -113 34t-98 34q-23 0 -38.5 -11t-35.5 -40l-54 32q34 48 61 66.5t62 18.5z" />
    <glyph glyph-name="nonbreakingspace" unicode="&#xa0;" horiz-adv-x="250" 
 />
    <glyph glyph-name="exclamdown" unicode="&#xa1;" horiz-adv-x="333" 
d="M144 282h13q10 -122 22 -215t18 -136t6 -72q0 -35 -14 -56t-39 -21q-53 0 -53 80q0 28 6 70t18 135.5t23 214.5zM150 360q-22 0 -38 16t-16 39t15.5 37.5t39.5 14.5q22 0 37 -14.5t15 -37.5t-15.5 -39t-37.5 -16z" />
    <glyph glyph-name="cent" unicode="&#xa2;" 
d="M169 12q-116 66 -116 207q0 101 63.5 171t156.5 70q21 0 51 -5l44 124h35l-47 -135q75 -30 75 -84q0 -20 -12 -32.5t-31 -12.5t-32 11.5t-26 40.5l-101 -291q32 -12 59 -12q44 0 76 22t71 78l13 -8q-12 -25 -18.5 -37.5t-25.5 -41t-37 -44t-47.5 -29t-62.5 -13.5
q-25 0 -56 9l-49 -138h-34zM198 98l115 323q-23 9 -47 9q-61 0 -98.5 -46.5t-37.5 -123.5q0 -54 15.5 -91t52.5 -71z" />
    <glyph glyph-name="sterling" unicode="&#xa3;" 
d="M490 136q0 -12 -10.5 -34.5t-30 -47.5t-53.5 -43t-74 -18q-32 0 -62.5 13t-81.5 48q-30 -35 -51 -48.5t-47 -13.5q-31 0 -49.5 17t-18.5 45q0 34 25 55t66 21q22 0 46 -5q4 11 4 21q0 20 -22 182h-108v45h107q-7 36 -7 69q0 107 53 170.5t142 63.5q56 0 93 -26.5
t37 -66.5q0 -23 -14 -38t-36 -15t-30 13.5t-9 53.5q-1 52 -56 52q-45 0 -70 -36.5t-25 -102.5q0 -44 11 -137h125v-45h-121q1 -22 1 -55q0 -35 -25 -162q84 -35 149 -35q34 0 59 10t36.5 22.5t22 22.5t18.5 10q6 0 6 -5zM79 20q28 0 45.5 21.5t17.5 34.5q0 6 -17.5 12
t-35.5 6q-51 0 -51 -37q0 -16 11.5 -26.5t29.5 -10.5z" />
    <glyph glyph-name="currency" unicode="&#xa4;" 
d="M-22 108l98 96q-41 59 -41 126q0 69 41 126l-98 98l50 48l96 -96q61 39 127 39q69 0 125 -39l98 96l48 -48l-96 -98q39 -58 39 -125q0 -66 -39 -127l96 -96l-48 -50l-98 98q-57 -41 -125 -41q-65 0 -127 41l-96 -98zM253 481q-63 0 -106.5 -44t-43.5 -107
q0 -62 43.5 -106.5t104.5 -44.5t103.5 44t42.5 108q0 62 -42.5 106t-101.5 44z" />
    <glyph glyph-name="yen" unicode="&#xa5;" 
d="M190 182h-174v40h174v76l-7 14h-167v40h144l-95 173q-41 74 -62 95t-56 23v19h243v-19q-65 -1 -65 -29q0 -19 13 -45l118 -221l112 220q14 26 14 44q0 31 -65 31v19h195v-19q-39 -8 -65.5 -32t-52.5 -75l-92 -184h146v-40h-166l-7 -14v-76h173v-40h-173v-73q0 -53 16 -71
t64 -19v-19h-244v19q50 2 64.5 20.5t14.5 80.5v62z" />
    <glyph glyph-name="brokenbar" unicode="&#xa6;" horiz-adv-x="200" 
d="M67 -14v276h66v-276h-66zM67 400v276h66v-276h-66z" />
    <glyph glyph-name="section" unicode="&#xa7;" 
d="M279 568q0 19 17 36t17 19q0 13 -18 22.5t-44 9.5q-38 0 -61.5 -19.5t-23.5 -51.5q0 -42 34 -71l137 -113q89 -74 89 -155q0 -53 -32.5 -87t-83.5 -34q-6 0 -18 1q56 -49 75 -78.5t19 -67.5q0 -57 -39.5 -92t-104.5 -35q-58 0 -98 29t-40 71q0 23 15.5 38.5t38.5 15.5
q20 0 34 -12t14 -30t-17 -35t-17 -21q0 -14 21.5 -24.5t49.5 -10.5q40 0 63.5 21t23.5 56q0 32 -27 62.5t-65 57t-76 55.5t-65 71t-27 90q0 51 33 85t82 34q15 0 25 -1q-60 50 -80 80t-20 70q0 54 38.5 88t100.5 34q55 0 91.5 -28t36.5 -70q0 -25 -13.5 -39t-37.5 -14
q-20 0 -33.5 12t-13.5 31zM374 212q0 52 -72.5 111.5t-110.5 59.5q-29 0 -48.5 -19t-19.5 -48q0 -50 66.5 -110t115.5 -60q28 0 48.5 20t20.5 46z" />
    <glyph glyph-name="dieresis" unicode="&#xa8;" horiz-adv-x="333" 
d="M66 622q21 0 36 -15t15 -35t-15 -34.5t-36 -14.5q-20 0 -34 14.5t-14 35.5q0 19 14.5 34t33.5 15zM265 622q21 0 36 -15t15 -35t-15 -34.5t-36 -14.5q-20 0 -34 14.5t-14 35.5q0 19 14.5 34t33.5 15z" />
    <glyph glyph-name="copyright" unicode="&#xa9;" horiz-adv-x="793" 
d="M401 676q-139 0 -236.5 -95t-97.5 -231q0 -138 96 -235t233 -97q136 0 232.5 96.5t96.5 232.5q0 135 -96 232t-228 97zM402 717q149 0 256.5 -108.5t107.5 -261.5q0 -151 -109 -260.5t-261 -109.5q-156 0 -263 107t-107 266q0 154 109.5 260.5t266.5 106.5z
M198.799 336.992q0 93.5957 57.5977 152.094t143.395 58.498q38.3984 0 71.9971 -9.90039q33.5986 -9.89941 38.999 -9.89941q19.7988 0 25.1982 19.7998h12.5996l5.39941 -135.595h-13.7988q-32.999 111.595 -128.995 111.595q-65.3975 0 -104.096 -48.5977
t-38.6982 -130.194q0 -52.1982 13.499 -90.2969q13.5 -38.0986 36.2988 -57.5977t47.0986 -28.1982q24.2988 -8.7002 51.8975 -8.7002q70.7969 0 133.795 60.5977l10.7988 -10.7998q-27.5986 -36.5977 -70.1963 -56.3975q-42.5986 -19.7988 -93.5967 -19.7988
q-88.7959 0 -143.994 55.7979q-55.1982 55.7969 -55.1982 147.594z" />
    <glyph glyph-name="ordfeminine" unicode="&#xaa;" horiz-adv-x="276" 
d="M76 625q0 -5 1.5 -11.5t1.5 -10.5q0 -10 -9.5 -17.5t-21.5 -7.5q-13 0 -22.5 9t-9.5 22q0 29 30.5 48t77.5 19q105 0 105 -96v-115q0 -22 2.5 -28.5t10.5 -6.5q13 0 28 12v-18q-30 -30 -59 -30q-20 0 -30 10t-15 34q-48 -44 -91 -44q-31 0 -51 19t-20 49q0 21 11 38
t33 29.5t41.5 21t50.5 19.5q11 4 17 6v30q0 42 -36 42q-16 0 -30.5 -7.5t-14.5 -15.5zM105 441q21 0 37 9t16 24v77q-53 -19 -72 -33t-19 -33q0 -18 11 -31t27 -13z" />
    <glyph glyph-name="guillemotleft" unicode="&#xab;" horiz-adv-x="444" 
d="M301 224q19 -28 53 -70t54.5 -70t20.5 -42q0 -9 -9 -9q-4 0 -21 16q-71 68 -191 173q128 116 197 181q14 13 15 13q10 0 10 -10q0 -14 -20 -42.5t-58 -75.5t-51 -64zM107 224q19 -28 53 -70t54.5 -70t20.5 -42q0 -9 -9 -9q-4 0 -21 16q-71 68 -191 173q128 116 197 181
q14 13 15 13q10 0 10 -10q0 -14 -20 -42.5t-58 -75.5t-51 -64z" />
    <glyph glyph-name="logicalnot" unicode="&#xac;" horiz-adv-x="564" 
d="M468 108v212h-438v66h504v-278h-66z" />
    <glyph glyph-name="softhyphen" unicode="&#xad;" horiz-adv-x="333" 
d="M39 257h246v-63h-246v63z" />
    <glyph glyph-name="registered" unicode="&#xae;" horiz-adv-x="792" 
d="M401 676q-139 0 -236.5 -95t-97.5 -231q0 -138 96 -235t233 -97q136 0 232.5 96.5t96.5 232.5q0 135 -96 232t-228 97zM402 717q149 0 256.5 -108.5t107.5 -261.5q0 -151 -109 -260.5t-261 -109.5q-156 0 -263 107t-107 266q0 154 109.5 260.5t266.5 106.5z
M391.793 539.184q25.7988 0 49.1982 -4.19922q23.3984 -4.2002 48.2979 -14.7002q24.8984 -10.499 39.8984 -32.6982q14.999 -22.1992 14.999 -53.998q0 -79.7969 -105.596 -99.5957q-1.7998 -0.599609 -3 -0.599609l123.595 -151.794q12.5996 -15 23.6992 -20.999
q11.0996 -6 28.499 -7.2002v-11.3994h-96.5957l-142.794 184.793l-33.5996 -1.2002v-118.195q0 -32.3984 9.59961 -41.998t44.3984 -12v-11.3994h-166.193v11.3994q33.5986 2.40039 42.2988 12.8994q8.69922 10.5 8.69922 47.6982v259.789q0 31.7988 -8.69922 41.0986
q-8.7002 9.2998 -42.2988 12.8994v11.3994h165.594zM338.395 347.792q72.5977 1.19922 106.496 19.1992q33.8984 17.999 33.8984 67.7969q0 41.998 -26.6982 62.0977q-26.6992 20.0986 -83.0967 20.0986q-18 0 -24.2998 -4.49902q-6.2998 -4.5 -6.2998 -17.0996v-147.594z
" />
    <glyph glyph-name="macron" unicode="&#xaf;" horiz-adv-x="333" 
d="M11 601h311v-54h-311v54z" />
    <glyph glyph-name="degree" unicode="&#xb0;" horiz-adv-x="400" 
d="M200 676q60 0 101.5 -41.5t41.5 -102.5q0 -60 -42 -101t-103 -41q-58 0 -99.5 42t-41.5 101q0 60 41.5 101.5t101.5 41.5zM200 642q-43 0 -73.5 -32.5t-30.5 -76.5t30.5 -76.5t72.5 -32.5q43 0 74 32t31 77q0 44 -31 76.5t-73 32.5z" />
    <glyph glyph-name="plusminus" unicode="&#xb1;" horiz-adv-x="564" 
d="M30 0v66h504v-66h-504zM249 413v220h66v-220h219v-66h-219v-220h-66v220h-219v66h219z" />
    <glyph glyph-name="twosuperior" unicode="&#xb2;" horiz-adv-x="320" 
d="M15 557q7 21 9.5 27.5t15.5 29t26 32.5t38 20t56 10q58 0 94.5 -29.5t36.5 -76.5q0 -73 -84 -156l-86 -85h121q20 0 30 5t21 22l17 -7l-37 -79h-253v17l98 107q36 39 58.5 79.5t22.5 63.5q0 31 -21.5 53.5t-51.5 22.5q-54 0 -86 -70z" />
    <glyph glyph-name="threesuperior" unicode="&#xb3;" horiz-adv-x="320" 
d="M217 378q0 44 -31.5 64.5t-57.5 20.5q-5 0 -28 -3v29q52 18 73.5 36.5t21.5 45.5q0 23 -15.5 36t-42.5 13q-25 0 -43 -12.5t-41 -44.5l-25 18q26 51 57.5 73t77.5 22q45 0 76.5 -24t31.5 -59q0 -39 -60 -82q87 -35 87 -113q0 -58 -55.5 -97t-138.5 -39t-83 50
q0 16 10 26.5t25 10.5t41 -19.5t52 -19.5q31 0 49.5 18.5t18.5 49.5z" />
    <glyph glyph-name="acute" unicode="&#xb4;" horiz-adv-x="333" 
d="M133 507h-40l147 148q23 23 42 23q35 0 35 -32q0 -23 -30 -42z" />
    <glyph glyph-name="micro" unicode="&#xb5;" 
d="M36 -148q0 27 12 104t12 98v396h88v-306q0 -43 22.5 -67.5t61.5 -24.5q72 0 110 63v335h88v-358q0 -65 32 -65q19 0 50 28v-8q-25 -32 -45.5 -44.5t-48.5 -12.5q-70 0 -73 90q-58 -90 -137 -90q-73 0 -117 74q6 -51 21.5 -107.5t15.5 -97.5q0 -77 -46 -77t-46 70z" />
    <glyph glyph-name="paragraph" unicode="&#xb6;" horiz-adv-x="483" 
d="M202 273q-94 3 -144 49t-50 155q0 98 49.5 141.5t159.5 43.5h263v-19q-58 -5 -73 -20.5t-15 -69.5v-595q0 -53 15.5 -69.5t72.5 -20.5v-22h-154v794h-58v-794h-154v22q58 4 73 21t15 80v304zM202 640q-62 -5 -90 -36.5t-28 -122.5q0 -95 27 -137t91 -49v345z" />
    <glyph glyph-name="middot" unicode="&#xb7;" horiz-adv-x="250" 
d="M123 282q21 0 36 -15t15 -35t-15 -34.5t-36 -14.5q-20 0 -34 14.5t-14 35.5q0 19 14.5 34t33.5 15z" />
    <glyph glyph-name="cedilla" unicode="&#xb8;" horiz-adv-x="333" 
d="M98 -99l41 99h35l-25 -65q15 3 26 3q40 0 63 -18.5t23 -50.5q0 -39 -33.5 -61.5t-91.5 -22.5q-45 0 -84 16l14 31q37 -12 65 -12q25 0 40 12t15 32q0 19 -12 27.5t-41 8.5q-17 0 -28 -4z" />
    <glyph glyph-name="onesuperior" unicode="&#xb9;" horiz-adv-x="320" 
d="M258 294v-24h-191v24q32 2 42.5 8.5t10.5 23.5v257q0 28 -8 28q-6 0 -43 -13v23l118 55l14 -3v-343q0 -20 11.5 -27t45.5 -9z" />
    <glyph glyph-name="ordmasculine" unicode="&#xba;" horiz-adv-x="310" 
d="M159 676q64 0 104.5 -37.5t40.5 -96.5q0 -63 -44 -105.5t-109 -42.5q-63 0 -104 39.5t-41 99.5q0 64 42.5 103.5t110.5 39.5zM79 569q0 -61 22 -101.5t59 -40.5q71 0 71 87q0 57 -22.5 93t-58.5 36q-32 0 -51.5 -20t-19.5 -54z" />
    <glyph glyph-name="guillemotright" unicode="&#xbb;" horiz-adv-x="441" 
d="M334 225q-19 28 -53 70t-54.5 70t-20.5 42q0 9 9 9q4 0 21 -16q71 -68 191 -173q-128 -116 -197 -181q-14 -13 -15 -13q-10 0 -10 10q0 14 20 42.5t58 75.5t51 64zM143 225q-19 28 -53 70t-54.5 70t-20.5 42q0 9 9 9q4 0 21 -16q71 -68 191 -173q-128 -116 -197 -181
q-14 -13 -15 -13q-10 0 -10 10q0 14 20 42.5t58 75.5t51 64z" />
    <glyph glyph-name="onequarter" unicode="&#xbc;" horiz-adv-x="750" 
d="M718 147v-57h-55v-90h-70v90h-180v49l203 266h47v-258h55zM593 147v179l-135 -179h135zM637 676l-450 -690h-49l453 690h46zM228 294v-24h-191v24q32 2 42.5 8.5t10.5 23.5v257q0 28 -8 28q-6 0 -43 -13v23l118 55l14 -3v-343q0 -20 11.5 -27t45.5 -9z" />
    <glyph glyph-name="onehalf" unicode="&#xbd;" horiz-adv-x="750" 
d="M600 676l-450 -690h-49l453 690h46zM222 294v-24h-191v24q32 2 42.5 8.5t10.5 23.5v257q0 28 -8 28q-6 0 -43 -13v23l118 55l14 -3v-343q0 -20 11.5 -27t45.5 -9zM451 287q7 21 9.5 27.5t15.5 29t26 32.5t38 20t56 10q58 0 94.5 -29.5t36.5 -76.5q0 -37 -19 -71t-65 -79
l-86 -85h121q20 0 30 5t21 22l17 -7l-37 -85h-253v23l98 107q81 87 81 137q0 31 -21.5 53.5t-51.5 22.5q-54 0 -86 -70z" />
    <glyph glyph-name="threequarters" unicode="&#xbe;" horiz-adv-x="750" 
d="M718 147v-57h-55v-90h-70v90h-180v49l203 266h47v-258h55zM593 147v179l-135 -179h135zM637 676l-450 -690h-49l453 690h46zM211 378q0 44 -31.5 64.5t-57.5 20.5q-9 0 -28 -3v29q53 18 74.5 36.5t21.5 45.5q0 22 -15 35.5t-41 13.5q-28 0 -46 -12t-42 -45l-25 18
q27 51 58.5 73t78.5 22q45 0 76.5 -24t31.5 -59q0 -39 -61 -82q87 -35 87 -113q0 -58 -55.5 -97t-138.5 -39t-83 50q0 16 10 26.5t25 10.5t41 -19.5t52 -19.5q31 0 49.5 18.5t18.5 49.5z" />
    <glyph glyph-name="questiondown" unicode="&#xbf;" horiz-adv-x="444" 
d="M213 -218q-76 0 -130 42.5t-54 112.5q0 36 17 73.5t34 61t54 68.5q50 64 65 154h17q0 -19 -1.5 -35t-5.5 -33t-6 -26t-9.5 -28.5t-9.5 -25t-13 -29t-13 -29.5q-37 -85 -37 -156q0 -50 31.5 -85t76.5 -35q37 0 66 19t29 43q0 9 -19 33t-19 41q0 18 11.5 29.5t29.5 11.5
q48 0 48 -62t-46.5 -103.5t-115.5 -41.5zM206 359q-22 0 -38 16.5t-16 38.5q0 23 15.5 37.5t39.5 14.5q22 0 37 -14.5t15 -36.5q0 -24 -15 -40t-38 -16z" />
    <glyph glyph-name="Agrave" unicode="&#xc0;" horiz-adv-x="722" 
d="M437 719h-40l-154 97q-29 19 -29 43q0 31 34 31q19 0 42 -23zM706 19v-19h-255v19q40 1 55 8t15 26q0 24 -19 67l-41 96h-262l-46 -117q-8 -21 -8 -39q0 -41 68 -41v-19h-198v19q37 2 57.5 28.5t66.5 135.5l208 491h20l249 -568q24 -55 40 -70t50 -17zM216 257h231
l-116 275z" />
    <glyph glyph-name="Aacute" unicode="&#xc1;" horiz-adv-x="722" 
d="M323 719h-40l147 148q23 23 42 23q35 0 35 -32q0 -23 -30 -42zM706 19v-19h-255v19q40 1 55 8t15 26q0 24 -19 67l-41 96h-262l-46 -117q-8 -21 -8 -39q0 -41 68 -41v-19h-198v19q37 2 57.5 28.5t66.5 135.5l208 491h20l249 -568q24 -55 40 -70t50 -17zM216 257h231
l-116 275z" />
    <glyph glyph-name="Acircumflex" unicode="&#xc2;" horiz-adv-x="722" 
d="M512 719h-34l-122 103l-121 -103h-34l124 167h62zM706 19v-19h-255v19q40 1 55 8t15 26q0 24 -19 67l-41 96h-262l-46 -117q-8 -21 -8 -39q0 -41 68 -41v-19h-198v19q37 2 57.5 28.5t66.5 135.5l208 491h20l249 -568q24 -55 40 -70t50 -17zM216 257h231l-116 275z" />
    <glyph glyph-name="Atilde" unicode="&#xc3;" horiz-adv-x="722" 
d="M497 838h29q-16 -57 -40 -81.5t-65 -24.5q-32 0 -81 24l-23 11q-24 11 -41 11q-35 0 -51 -46h-29q11 49 37 75t64 26q36 0 70 -18l24 -12q32 -15 53 -15q17 0 28.5 11t24.5 39zM706 19v-19h-255v19q40 1 55 8t15 26q0 24 -19 67l-41 96h-262l-46 -117q-8 -21 -8 -39
q0 -41 68 -41v-19h-198v19q37 2 57.5 28.5t66.5 135.5l208 491h20l249 -568q24 -55 40 -70t50 -17zM216 257h231l-116 275z" />
    <glyph glyph-name="Adieresis" unicode="&#xc4;" horiz-adv-x="722" 
d="M455 835q21 0 36 -15t15 -35t-15 -34.5t-36 -14.5q-20 0 -34 14.5t-14 35.5q0 19 14.5 34t33.5 15zM256 835q21 0 36 -15t15 -35t-15 -34.5t-36 -14.5q-20 0 -34 14.5t-14 35.5q0 19 14.5 34t33.5 15zM706 19v-19h-255v19q40 1 55 8t15 26q0 24 -19 67l-41 96h-262
l-46 -117q-8 -21 -8 -39q0 -41 68 -41v-19h-198v19q37 2 57.5 28.5t66.5 135.5l208 491h20l249 -568q24 -55 40 -70t50 -17zM216 257h231l-116 275z" />
    <glyph glyph-name="Aring" unicode="&#xc5;" horiz-adv-x="722" 
d="M356 900q41 0 70.5 -29.5t29.5 -70.5t-29.5 -70t-70.5 -29q-42 0 -70.5 29t-28.5 71q0 40 29.5 69.5t69.5 29.5zM357 866q-27 0 -46.5 -19t-19.5 -46t19 -46.5t45 -19.5q28 0 47.5 19t19.5 46t-19.5 46.5t-45.5 19.5zM706 19v-19h-255v19q40 1 55 8t15 26q0 24 -19 67
l-41 96h-262l-46 -117q-8 -21 -8 -39q0 -41 68 -41v-19h-198v19q37 2 57.5 28.5t66.5 135.5l208 491h20l249 -568q24 -55 40 -70t50 -17zM216 257h231l-116 275z" />
    <glyph glyph-name="AE" unicode="&#xc6;" horiz-adv-x="889" 
d="M740 229q-7 55 -25 77.5t-73 22.5h-145v-238q0 -37 10 -45t59 -8h76q81 0 117.5 24t79.5 106h24l-44 -168h-510v19q57 7 73 20.5t16 68.5v152h-176l-28 -53q-64 -125 -64 -158q0 -15 26.5 -22.5t42.5 -7.5v-19h-199v19q33 5 49 18.5t39 59.5l245 484q9 17 9 28
q0 16 -20.5 23.5t-69.5 9.5v20h564v-141h-23q-7 48 -22 68.5t-49.5 28.5t-110.5 8h-87q-27 0 -27 -30v-230h111q71 0 98.5 17.5t33.5 79.5h21v-234h-21zM239 299h159v319z" />
    <glyph glyph-name="Ccedilla" unicode="&#xc7;" horiz-adv-x="667" 
d="M144 338q0 -87 22.5 -150.5t60.5 -96t78.5 -47t86.5 -14.5q118 0 223 101l18 -18q-45 -61 -116.5 -94t-156.5 -33q-15 0 -24 1l-20 -52q15 3 26 3q40 0 63 -18.5t23 -50.5q0 -39 -33.5 -61.5t-91.5 -22.5q-45 0 -84 16l14 31q37 -12 65 -12q25 0 40 12t15 32
q0 19 -12 27.5t-41 8.5q-17 0 -28 -4l-7 5l37 89q-125 18 -199.5 108.5t-74.5 226.5q0 156 96 253.5t239 97.5q64 0 120 -16.5t65 -16.5q33 0 42 33h21l9 -226h-23q-55 186 -215 186q-109 0 -173.5 -81t-64.5 -217z" />
    <glyph glyph-name="Egrave" unicode="&#xc8;" horiz-adv-x="611" 
d="M382 719h-40l-154 97q-29 19 -29 43q0 31 34 31q19 0 42 -23zM201 80q0 -29 16.5 -36t88.5 -7h27q107 0 153 25.5t83 106.5h28l-45 -169h-540v19q55 4 71 20.5t16 69.5v444q0 53 -16 69.5t-71 20.5v19h531l3 -143h-25q-13 67 -40 86t-112 19h-135q-20 0 -26.5 -6.5
t-6.5 -27.5v-222h154q64 0 82.5 19.5t27.5 75.5h23v-232h-23q-10 62 -29 79t-81 17h-154v-247z" />
    <glyph glyph-name="Eacute" unicode="&#xc9;" horiz-adv-x="611" 
d="M273 719h-40l147 148q23 23 42 23q35 0 35 -32q0 -23 -30 -42zM201 80q0 -29 16.5 -36t88.5 -7h27q107 0 153 25.5t83 106.5h28l-45 -169h-540v19q55 4 71 20.5t16 69.5v444q0 53 -16 69.5t-71 20.5v19h531l3 -143h-25q-13 67 -40 86t-112 19h-135q-20 0 -26.5 -6.5
t-6.5 -27.5v-222h154q64 0 82.5 19.5t27.5 75.5h23v-232h-23q-10 62 -29 79t-81 17h-154v-247z" />
    <glyph glyph-name="Ecircumflex" unicode="&#xca;" horiz-adv-x="611" 
d="M462 719h-34l-122 103l-121 -103h-34l124 167h62zM201 80q0 -29 16.5 -36t88.5 -7h27q107 0 153 25.5t83 106.5h28l-45 -169h-540v19q55 4 71 20.5t16 69.5v444q0 53 -16 69.5t-71 20.5v19h531l3 -143h-25q-13 67 -40 86t-112 19h-135q-20 0 -26.5 -6.5t-6.5 -27.5v-222
h154q64 0 82.5 19.5t27.5 75.5h23v-232h-23q-10 62 -29 79t-81 17h-154v-247z" />
    <glyph glyph-name="Edieresis" unicode="&#xcb;" horiz-adv-x="611" 
d="M404 834q21 0 36 -15t15 -35t-15 -34.5t-36 -14.5q-20 0 -34 14.5t-14 35.5q0 19 14.5 34t33.5 15zM205 834q21 0 36 -15t15 -35t-15 -34.5t-36 -14.5q-20 0 -34 14.5t-14 35.5q0 19 14.5 34t33.5 15zM201 80q0 -29 16.5 -36t88.5 -7h27q107 0 153 25.5t83 106.5h28
l-45 -169h-540v19q55 4 71 20.5t16 69.5v444q0 53 -16 69.5t-71 20.5v19h531l3 -143h-25q-13 67 -40 86t-112 19h-135q-20 0 -26.5 -6.5t-6.5 -27.5v-222h154q64 0 82.5 19.5t27.5 75.5h23v-232h-23q-10 62 -29 79t-81 17h-154v-247z" />
    <glyph glyph-name="Igrave" unicode="&#xcc;" horiz-adv-x="333" 
d="M242 719h-40l-154 97q-29 19 -29 43q0 31 34 31q19 0 42 -23zM115 109v444q0 55 -16.5 70.5t-80.5 19.5v19h297v-19q-63 -3 -80.5 -19t-17.5 -71v-444q0 -55 18 -71.5t80 -18.5v-19h-297v19q63 2 80 18t17 72z" />
    <glyph glyph-name="Iacute" unicode="&#xcd;" horiz-adv-x="333" 
d="M133 719h-40l147 148q23 23 42 23q35 0 35 -32q0 -23 -30 -42zM115 109v444q0 55 -16.5 70.5t-80.5 19.5v19h297v-19q-63 -3 -80.5 -19t-17.5 -71v-444q0 -55 18 -71.5t80 -18.5v-19h-297v19q63 2 80 18t17 72z" />
    <glyph glyph-name="Icircumflex" unicode="&#xce;" horiz-adv-x="333" 
d="M322 719h-34l-122 103l-121 -103h-34l124 167h62zM115 109v444q0 55 -16.5 70.5t-80.5 19.5v19h297v-19q-63 -3 -80.5 -19t-17.5 -71v-444q0 -55 18 -71.5t80 -18.5v-19h-297v19q63 2 80 18t17 72z" />
    <glyph glyph-name="Idieresis" unicode="&#xcf;" horiz-adv-x="333" 
d="M265 835q21 0 36 -15t15 -35t-15 -34.5t-36 -14.5q-20 0 -34 14.5t-14 35.5q0 19 14.5 34t33.5 15zM66 835q21 0 36 -15t15 -35t-15 -34.5t-36 -14.5q-20 0 -34 14.5t-14 35.5q0 19 14.5 34t33.5 15zM115 109v444q0 55 -16.5 70.5t-80.5 19.5v19h297v-19
q-63 -3 -80.5 -19t-17.5 -71v-444q0 -55 18 -71.5t80 -18.5v-19h-297v19q63 2 80 18t17 72z" />
    <glyph glyph-name="Eth" unicode="&#xd0;" horiz-adv-x="722" 
d="M685 334q0 -45 -10 -88t-37 -89t-69 -79.5t-111.5 -55.5t-157.5 -22h-284v19q57 4 72.5 20t15.5 70v206h-83v44h83v194q0 55 -14.5 70t-73.5 20v19h270q91 0 162.5 -20.5t115 -53t72 -77t39 -87.5t10.5 -90zM576 327q0 39 -7 75.5t-28 78.5t-54.5 72.5t-93 51
t-137.5 20.5q-30 0 -40 -8t-10 -31v-227h146v-44h-146v-237q0 -24 11 -32.5t41 -8.5q318 0 318 290z" />
    <glyph glyph-name="Ntilde" unicode="&#xd1;" horiz-adv-x="722" 
d="M497 838h29q-16 -57 -40 -81.5t-65 -24.5q-32 0 -81 24l-23 11q-24 11 -41 11q-35 0 -51 -46h-29q11 49 37 75t64 26q36 0 70 -18l24 -12q32 -15 53 -15q17 0 28.5 11t24.5 39zM707 643q-28 -3 -41.5 -6.5t-28 -15.5t-20 -37.5t-5.5 -68.5v-526h-17l-442 550v-392
q0 -76 18 -100.5t76 -27.5v-19h-235v19q62 4 79.5 27.5t17.5 100.5v441q-30 35 -47.5 45t-49.5 10v19h171l385 -484v337q0 76 -18.5 99.5t-77.5 28.5v19h235v-19z" />
    <glyph glyph-name="Ograve" unicode="&#xd2;" horiz-adv-x="722" 
d="M438 718h-40l-154 97q-29 19 -29 43q0 31 34 31q19 0 42 -23zM355 -14q-135 0 -228 95.5t-93 249.5q0 151 92 248t235 97q144 0 235.5 -96.5t91.5 -252.5q0 -151 -92.5 -246t-240.5 -95zM574 328q0 72 -14 128t-35.5 90t-50.5 56t-56.5 30t-56.5 8q-49 0 -88 -21
t-61.5 -52.5t-37.5 -74.5t-20.5 -82.5t-5.5 -80.5q0 -51 10 -100t32 -98t65.5 -79t103.5 -30q61 0 105.5 30t67 79t32.5 98t10 99z" />
    <glyph glyph-name="Oacute" unicode="&#xd3;" horiz-adv-x="722" 
d="M328 719h-40l147 148q23 23 42 23q35 0 35 -32q0 -23 -30 -42zM355 -14q-135 0 -228 95.5t-93 249.5q0 151 92 248t235 97q144 0 235.5 -96.5t91.5 -252.5q0 -151 -92.5 -246t-240.5 -95zM574 328q0 72 -14 128t-35.5 90t-50.5 56t-56.5 30t-56.5 8q-49 0 -88 -21
t-61.5 -52.5t-37.5 -74.5t-20.5 -82.5t-5.5 -80.5q0 -51 10 -100t32 -98t65.5 -79t103.5 -30q61 0 105.5 30t67 79t32.5 98t10 99z" />
    <glyph glyph-name="Ocircumflex" unicode="&#xd4;" horiz-adv-x="722" 
d="M517 719h-34l-122 103l-121 -103h-34l124 167h62zM355 -14q-135 0 -228 95.5t-93 249.5q0 151 92 248t235 97q144 0 235.5 -96.5t91.5 -252.5q0 -151 -92.5 -246t-240.5 -95zM574 328q0 72 -14 128t-35.5 90t-50.5 56t-56.5 30t-56.5 8q-49 0 -88 -21t-61.5 -52.5
t-37.5 -74.5t-20.5 -82.5t-5.5 -80.5q0 -51 10 -100t32 -98t65.5 -79t103.5 -30q61 0 105.5 30t67 79t32.5 98t10 99z" />
    <glyph glyph-name="Otilde" unicode="&#xd5;" horiz-adv-x="722" 
d="M497 838h29q-16 -57 -40 -81.5t-65 -24.5q-32 0 -81 24l-23 11q-24 11 -41 11q-35 0 -51 -46h-29q11 49 37 75t64 26q36 0 70 -18l24 -12q32 -15 53 -15q17 0 28.5 11t24.5 39zM355 -14q-135 0 -228 95.5t-93 249.5q0 151 92 248t235 97q144 0 235.5 -96.5t91.5 -252.5
q0 -151 -92.5 -246t-240.5 -95zM574 328q0 72 -14 128t-35.5 90t-50.5 56t-56.5 30t-56.5 8q-49 0 -88 -21t-61.5 -52.5t-37.5 -74.5t-20.5 -82.5t-5.5 -80.5q0 -51 10 -100t32 -98t65.5 -79t103.5 -30q61 0 105.5 30t67 79t32.5 98t10 99z" />
    <glyph glyph-name="Odieresis" unicode="&#xd6;" horiz-adv-x="722" 
d="M459 835q21 0 36 -15t15 -35t-15 -34.5t-36 -14.5q-20 0 -34 14.5t-14 35.5q0 19 14.5 34t33.5 15zM260 835q21 0 36 -15t15 -35t-15 -34.5t-36 -14.5q-20 0 -34 14.5t-14 35.5q0 19 14.5 34t33.5 15zM355 -14q-135 0 -228 95.5t-93 249.5q0 151 92 248t235 97
q144 0 235.5 -96.5t91.5 -252.5q0 -151 -92.5 -246t-240.5 -95zM574 328q0 72 -14 128t-35.5 90t-50.5 56t-56.5 30t-56.5 8q-49 0 -88 -21t-61.5 -52.5t-37.5 -74.5t-20.5 -82.5t-5.5 -80.5q0 -51 10 -100t32 -98t65.5 -79t103.5 -30q61 0 105.5 30t67 79t32.5 98t10 99z
" />
    <glyph glyph-name="multiply" unicode="&#xd7;" horiz-adv-x="564" 
d="M234 253l-196 196l48 48l196 -197l196 197l48 -48l-196 -196l196 -197l-48 -48l-196 197l-196 -197l-48 48z" />
    <glyph glyph-name="Oslash" unicode="&#xd8;" horiz-adv-x="722" 
d="M151 59q-21 19 -36 36t-36.5 50t-33 80.5t-11.5 104.5q0 152 92 249t236 97q88 0 175 -49l72 107h49l-88 -130q22 -21 36.5 -37t36.5 -50t33.5 -81t11.5 -105q0 -152 -92 -248.5t-237 -96.5q-91 0 -175 50l-79 -116h-49zM527 540l-308 -452q60 -66 142 -66q99 0 156 82.5
t57 225.5q0 120 -47 210zM194 123l308 452q-62 65 -141 65q-98 0 -155.5 -83.5t-57.5 -226.5q0 -120 46 -207z" />
    <glyph glyph-name="Ugrave" unicode="&#xd9;" horiz-adv-x="722" 
d="M454 719h-40l-154 97q-29 19 -29 43q0 31 34 31q19 0 42 -23zM206 233q0 -100 37.5 -151.5t134.5 -51.5q56 0 101 21.5t65 57.5q23 43 23 136v270q0 75 -18 99.5t-76 28.5v19h232v-19q-62 -8 -78 -30t-16 -98v-261q0 -59 -10.5 -103t-37 -83.5t-79 -60.5t-129.5 -21
q-128 0 -189.5 62.5t-61.5 192.5v312q0 55 -15.5 70t-74.5 20v19h283v-19q-60 -5 -75.5 -20.5t-15.5 -69.5v-320z" />
    <glyph glyph-name="Uacute" unicode="&#xda;" horiz-adv-x="722" 
d="M353 719h-40l147 148q23 23 42 23q35 0 35 -32q0 -23 -30 -42zM206 233q0 -100 37.5 -151.5t134.5 -51.5q56 0 101 21.5t65 57.5q23 43 23 136v270q0 75 -18 99.5t-76 28.5v19h232v-19q-62 -8 -78 -30t-16 -98v-261q0 -59 -10.5 -103t-37 -83.5t-79 -60.5t-129.5 -21
q-128 0 -189.5 62.5t-61.5 192.5v312q0 55 -15.5 70t-74.5 20v19h283v-19q-60 -5 -75.5 -20.5t-15.5 -69.5v-320z" />
    <glyph glyph-name="Ucircumflex" unicode="&#xdb;" horiz-adv-x="722" 
d="M536 719h-34l-122 103l-121 -103h-34l124 167h62zM206 233q0 -100 37.5 -151.5t134.5 -51.5q56 0 101 21.5t65 57.5q23 43 23 136v270q0 75 -18 99.5t-76 28.5v19h232v-19q-62 -8 -78 -30t-16 -98v-261q0 -59 -10.5 -103t-37 -83.5t-79 -60.5t-129.5 -21
q-128 0 -189.5 62.5t-61.5 192.5v312q0 55 -15.5 70t-74.5 20v19h283v-19q-60 -5 -75.5 -20.5t-15.5 -69.5v-320z" />
    <glyph glyph-name="Udieresis" unicode="&#xdc;" horiz-adv-x="722" 
d="M477 834q21 0 36 -15t15 -35t-15 -34.5t-36 -14.5q-20 0 -34 14.5t-14 35.5q0 19 14.5 34t33.5 15zM278 834q21 0 36 -15t15 -35t-15 -34.5t-36 -14.5q-20 0 -34 14.5t-14 35.5q0 19 14.5 34t33.5 15zM206 233q0 -100 37.5 -151.5t134.5 -51.5q56 0 101 21.5t65 57.5
q23 43 23 136v270q0 75 -18 99.5t-76 28.5v19h232v-19q-62 -8 -78 -30t-16 -98v-261q0 -59 -10.5 -103t-37 -83.5t-79 -60.5t-129.5 -21q-128 0 -189.5 62.5t-61.5 192.5v312q0 55 -15.5 70t-74.5 20v19h283v-19q-60 -5 -75.5 -20.5t-15.5 -69.5v-320z" />
    <glyph glyph-name="Yacute" unicode="&#xdd;" horiz-adv-x="722" 
d="M360 719h-40l147 148q23 23 42 23q35 0 35 -32q0 -23 -30 -42zM703 662v-19q-39 -3 -67 -25.5t-71 -88.5l-148 -226v-194q0 -57 18 -72.5t85 -17.5v-19h-306v19q68 3 84.5 19.5t16.5 81.5v174l-131 192q-50 73 -76 104.5t-43 41.5t-43 11v19h280v-19q-71 -5 -71 -30
q0 -19 17 -44l148 -222l143 226q14 23 14 37q0 18 -15 25t-54 8v19h219z" />
    <glyph glyph-name="Thorn" unicode="&#xde;" horiz-adv-x="576" 
d="M542 351q0 -25 -6 -49t-23.5 -51t-46.5 -47t-79 -33t-116 -13q-29 0 -69 3v-52q0 -55 17.5 -71.5t76.5 -18.5v-19h-280v19q57 5 70.5 21.5t13.5 79.5v433q0 54 -14 69t-70 21v19h277v-19q-60 -5 -75.5 -22.5t-15.5 -77.5v-11h80q120 0 190 -49t70 -132zM202 461v-260
q34 -3 57 -3q174 0 174 147q0 77 -48 113t-151 36q-19 0 -25.5 -7t-6.5 -26z" />
    <glyph glyph-name="ssharp" unicode="&#xdf;" 
d="M284 377q184 -35 184 -191q0 -82 -52 -138.5t-127 -56.5q-43 0 -70 20.5t-27 52.5q0 20 13 34t32 14q17 0 29 -11.5t13 -28.5l2 -22q1 -16 8 -23t21 -7q64 0 64 130q0 202 -132 207q-32 1 -32 17q0 12 29 15q95 10 95 128q0 65 -24 102t-67 37q-39 0 -62.5 -29t-23.5 -78
v-549h-145v15q38 3 49.5 16t11.5 53v370q0 50 8 88t26.5 71.5t55 51.5t88.5 18q78 0 124 -41.5t46 -110.5q0 -54 -28.5 -85.5t-108.5 -68.5z" />
    <glyph glyph-name="agrave" unicode="&#xe0;" horiz-adv-x="444" 
d="M298 507h-40l-154 97q-29 19 -29 43q0 31 34 31q19 0 42 -23zM37 97q0 18 4 33.5t14 29t19 24.5t27 22.5t30 19t36.5 18t37.5 16t41 16.5t41 16v61q0 83 -76 83q-30 0 -51 -14.5t-21 -34.5q0 -8 2.5 -22t2.5 -18q0 -17 -13.5 -29.5t-31.5 -12.5q-17 0 -30 13t-13 30
q0 47 48.5 79.5t119.5 32.5q82 0 113 -39.5t31 -120.5v-195q0 -33 6.5 -45.5t23.5 -12.5q21 0 44 19v-26q-26 -29 -45.5 -39.5t-44.5 -10.5q-31 0 -45.5 17t-18.5 56q-86 -73 -146 -73q-46 0 -75.5 30t-29.5 77zM287 123v145q-90 -33 -126 -64t-36 -75q0 -41 20 -61t43 -20
q34 0 73 23q16 9 21 19t5 33z" />
    <glyph glyph-name="aacute" unicode="&#xe1;" horiz-adv-x="444" 
d="M188 507h-40l147 148q23 23 42 23q35 0 35 -32q0 -23 -30 -42zM37 97q0 18 4 33.5t14 29t19 24.5t27 22.5t30 19t36.5 18t37.5 16t41 16.5t41 16v61q0 83 -76 83q-30 0 -51 -14.5t-21 -34.5q0 -8 2.5 -22t2.5 -18q0 -17 -13.5 -29.5t-31.5 -12.5q-17 0 -30 13t-13 30
q0 47 48.5 79.5t119.5 32.5q82 0 113 -39.5t31 -120.5v-195q0 -33 6.5 -45.5t23.5 -12.5q21 0 44 19v-26q-26 -29 -45.5 -39.5t-44.5 -10.5q-31 0 -45.5 17t-18.5 56q-86 -73 -146 -73q-46 0 -75.5 30t-29.5 77zM287 123v145q-90 -33 -126 -64t-36 -75q0 -41 20 -61t43 -20
q34 0 73 23q16 9 21 19t5 33z" />
    <glyph glyph-name="acircumflex" unicode="&#xe2;" horiz-adv-x="444" 
d="M378 507h-34l-122 103l-121 -103h-34l124 167h62zM37 97q0 18 4 33.5t14 29t19 24.5t27 22.5t30 19t36.5 18t37.5 16t41 16.5t41 16v61q0 83 -76 83q-30 0 -51 -14.5t-21 -34.5q0 -8 2.5 -22t2.5 -18q0 -17 -13.5 -29.5t-31.5 -12.5q-17 0 -30 13t-13 30q0 47 48.5 79.5
t119.5 32.5q82 0 113 -39.5t31 -120.5v-195q0 -33 6.5 -45.5t23.5 -12.5q21 0 44 19v-26q-26 -29 -45.5 -39.5t-44.5 -10.5q-31 0 -45.5 17t-18.5 56q-86 -73 -146 -73q-46 0 -75.5 30t-29.5 77zM287 123v145q-90 -33 -126 -64t-36 -75q0 -41 20 -61t43 -20q34 0 73 23
q16 9 21 19t5 33z" />
    <glyph glyph-name="atilde" unicode="&#xe3;" horiz-adv-x="444" 
d="M356 626h29q-16 -57 -40 -81.5t-65 -24.5q-32 0 -81 24l-23 11q-24 11 -41 11q-35 0 -51 -46h-29q11 49 37 75t64 26q36 0 70 -18l24 -12q32 -15 53 -15q17 0 28.5 11t24.5 39zM37 97q0 18 4 33.5t14 29t19 24.5t27 22.5t30 19t36.5 18t37.5 16t41 16.5t41 16v61
q0 83 -76 83q-30 0 -51 -14.5t-21 -34.5q0 -8 2.5 -22t2.5 -18q0 -17 -13.5 -29.5t-31.5 -12.5q-17 0 -30 13t-13 30q0 47 48.5 79.5t119.5 32.5q82 0 113 -39.5t31 -120.5v-195q0 -33 6.5 -45.5t23.5 -12.5q21 0 44 19v-26q-26 -29 -45.5 -39.5t-44.5 -10.5q-31 0 -45.5 17
t-18.5 56q-86 -73 -146 -73q-46 0 -75.5 30t-29.5 77zM287 123v145q-90 -33 -126 -64t-36 -75q0 -41 20 -61t43 -20q34 0 73 23q16 9 21 19t5 33z" />
    <glyph glyph-name="adieresis" unicode="&#xe4;" horiz-adv-x="444" 
d="M322 619q21 0 36 -15t15 -35t-15 -34.5t-36 -14.5q-20 0 -34 14.5t-14 35.5q0 19 14.5 34t33.5 15zM123 619q21 0 36 -15t15 -35t-15 -34.5t-36 -14.5q-20 0 -34 14.5t-14 35.5q0 19 14.5 34t33.5 15zM37 97q0 18 4 33.5t14 29t19 24.5t27 22.5t30 19t36.5 18t37.5 16
t41 16.5t41 16v61q0 83 -76 83q-30 0 -51 -14.5t-21 -34.5q0 -8 2.5 -22t2.5 -18q0 -17 -13.5 -29.5t-31.5 -12.5q-17 0 -30 13t-13 30q0 47 48.5 79.5t119.5 32.5q82 0 113 -39.5t31 -120.5v-195q0 -33 6.5 -45.5t23.5 -12.5q21 0 44 19v-26q-26 -29 -45.5 -39.5
t-44.5 -10.5q-31 0 -45.5 17t-18.5 56q-86 -73 -146 -73q-46 0 -75.5 30t-29.5 77zM287 123v145q-90 -33 -126 -64t-36 -75q0 -41 20 -61t43 -20q34 0 73 23q16 9 21 19t5 33z" />
    <glyph glyph-name="aring" unicode="&#xe5;" horiz-adv-x="444" 
d="M224 719q41 0 70.5 -29.5t29.5 -70.5t-29.5 -70t-70.5 -29q-42 0 -70.5 29t-28.5 71q0 40 29.5 69.5t69.5 29.5zM225 685q-27 0 -46.5 -19t-19.5 -46t19 -46.5t45 -19.5q28 0 47.5 19t19.5 46t-19.5 46.5t-45.5 19.5zM37 97q0 18 4 33.5t14 29t19 24.5t27 22.5t30 19
t36.5 18t37.5 16t41 16.5t41 16v61q0 83 -76 83q-30 0 -51 -14.5t-21 -34.5q0 -8 2.5 -22t2.5 -18q0 -17 -13.5 -29.5t-31.5 -12.5q-17 0 -30 13t-13 30q0 47 48.5 79.5t119.5 32.5q82 0 113 -39.5t31 -120.5v-195q0 -33 6.5 -45.5t23.5 -12.5q21 0 44 19v-26
q-26 -29 -45.5 -39.5t-44.5 -10.5q-31 0 -45.5 17t-18.5 56q-86 -73 -146 -73q-46 0 -75.5 30t-29.5 77zM287 123v145q-90 -33 -126 -64t-36 -75q0 -41 20 -61t43 -20q34 0 73 23q16 9 21 19t5 33z" />
    <glyph glyph-name="ae" unicode="&#xe6;" horiz-adv-x="651" 
d="M143 392q0 -1 0.5 -6.5t1.5 -15.5t1 -21q0 -20 -11.5 -32.5t-31.5 -12.5t-32 13t-12 35q0 46 46 77t114 31q65 0 117 -45q34 26 59.5 35.5t59.5 9.5q76 0 114 -43t46 -140h-262q0 -39 2 -64.5t9 -58t19 -51.5t35.5 -32.5t56.5 -13.5q43 0 75.5 22t68.5 75l12 -5
q-39 -85 -86.5 -122t-110.5 -37q-81 0 -129 73q-51 -42 -83 -57.5t-69 -15.5q-51 0 -83.5 30.5t-32.5 79.5q0 39 29.5 70t64.5 48.5t120 53.5l21 9v63q0 48 -12 70t-48 22q-29 0 -49 -13t-20 -31zM293 88l-5 14q-5 15 -10 41.5t-5 57.5v52q-91 -33 -120 -58t-29 -70
q0 -36 19.5 -61.5t47.5 -25.5t65 18t37 32zM354 307h166q-2 65 -20.5 94.5t-58.5 29.5q-43 0 -63 -29t-24 -95z" />
    <glyph glyph-name="ccedilla" unicode="&#xe7;" horiz-adv-x="444" 
d="M25 212q0 111 65 179.5t154 68.5q63 0 108.5 -30.5t45.5 -72.5q0 -17 -14 -29.5t-33 -12.5q-35 0 -48 46l-6 22q-8 28 -20 38t-39 10q-61 0 -98.5 -48.5t-37.5 -125.5q0 -86 43.5 -140.5t111.5 -54.5q43 0 74 21t67 73l14 -9q-39 -79 -82 -115.5t-104 -41.5l-21 -55
q15 3 26 3q40 0 63 -18.5t23 -50.5q0 -39 -33.5 -61.5t-91.5 -22.5q-45 0 -84 16l14 31q36 -12 65 -12q25 0 40 12t15 32q0 19 -12 27.5t-41 8.5q-17 0 -28 -4l-7 5l38 91q-76 10 -121.5 70.5t-45.5 149.5z" />
    <glyph glyph-name="egrave" unicode="&#xe8;" horiz-adv-x="444" 
d="M298 507h-40l-154 97q-29 19 -29 43q0 31 34 31q19 0 42 -23zM97 277q2 -63 17 -108.5t39 -68t48.5 -32t51.5 -9.5q48 0 83.5 24t71.5 81l16 -7q-31 -81 -86 -124t-126 -43q-86 0 -136.5 60.5t-50.5 163.5q0 111 58.5 178.5t150.5 67.5q76 0 118 -45.5t53 -137.5h-308z
M99 309h204q-10 65 -31 90t-67 25q-90 0 -106 -115z" />
    <glyph glyph-name="eacute" unicode="&#xe9;" horiz-adv-x="444" 
d="M188 507h-40l147 148q23 23 42 23q35 0 35 -32q0 -23 -30 -42zM97 277q2 -63 17 -108.5t39 -68t48.5 -32t51.5 -9.5q48 0 83.5 24t71.5 81l16 -7q-31 -81 -86 -124t-126 -43q-86 0 -136.5 60.5t-50.5 163.5q0 111 58.5 178.5t150.5 67.5q76 0 118 -45.5t53 -137.5h-308z
M99 309h204q-10 65 -31 90t-67 25q-90 0 -106 -115z" />
    <glyph glyph-name="ecircumflex" unicode="&#xea;" horiz-adv-x="444" 
d="M378 507h-34l-122 103l-121 -103h-34l124 167h62zM97 277q2 -63 17 -108.5t39 -68t48.5 -32t51.5 -9.5q48 0 83.5 24t71.5 81l16 -7q-31 -81 -86 -124t-126 -43q-86 0 -136.5 60.5t-50.5 163.5q0 111 58.5 178.5t150.5 67.5q76 0 118 -45.5t53 -137.5h-308zM99 309h204
q-10 65 -31 90t-67 25q-90 0 -106 -115z" />
    <glyph glyph-name="edieresis" unicode="&#xeb;" horiz-adv-x="444" 
d="M320 621q21 0 36 -15t15 -35t-15 -34.5t-36 -14.5q-20 0 -34 14.5t-14 35.5q0 19 14.5 34t33.5 15zM121 621q21 0 36 -15t15 -35t-15 -34.5t-36 -14.5q-20 0 -34 14.5t-14 35.5q0 19 14.5 34t33.5 15zM97 277q2 -63 17 -108.5t39 -68t48.5 -32t51.5 -9.5q48 0 83.5 24
t71.5 81l16 -7q-31 -81 -86 -124t-126 -43q-86 0 -136.5 60.5t-50.5 163.5q0 111 58.5 178.5t150.5 67.5q76 0 118 -45.5t53 -137.5h-308zM99 309h204q-10 65 -31 90t-67 25q-90 0 -106 -115z" />
    <glyph glyph-name="igrave" unicode="&#xec;" horiz-adv-x="278" 
d="M223 507h-40l-154 97q-29 19 -29 43q0 31 34 31q19 0 42 -23zM62 394q-12 0 -42 -4v15l155 55l4 -3v-355q0 -54 12.5 -68.5t61.5 -18.5v-15h-237v15q52 3 65.5 18t13.5 69v232q0 33 -7.5 46.5t-25.5 13.5z" />
    <glyph glyph-name="iacute" unicode="&#xed;" horiz-adv-x="278" 
d="M90 507h-40l147 148q23 23 42 23q35 0 35 -32q0 -23 -30 -42zM62 394q-12 0 -42 -4v15l155 55l4 -3v-355q0 -54 12.5 -68.5t61.5 -18.5v-15h-237v15q52 3 65.5 18t13.5 69v232q0 33 -7.5 46.5t-25.5 13.5z" />
    <glyph glyph-name="icircumflex" unicode="&#xee;" horiz-adv-x="278" 
d="M62 394q-12 0 -42 -4v15l155 55l4 -3v-355q0 -54 12.5 -68.5t61.5 -18.5v-15h-237v15q52 3 65.5 18t13.5 69v232q0 33 -7.5 46.5t-25.5 13.5zM295 507h-34l-122 103l-121 -103h-34l124 167h62z" />
    <glyph glyph-name="idieresis" unicode="&#xef;" horiz-adv-x="278" 
d="M55 622q21 0 36 -15t15 -35t-15 -34.5t-36 -14.5q-20 0 -34 14.5t-14 35.5q0 19 14.5 34t33.5 15zM220 622q21 0 36 -15t15 -35t-15 -34.5t-36 -14.5q-20 0 -34 14.5t-14 35.5q0 19 14.5 34t33.5 15zM62 394q-12 0 -42 -4v15l155 55l4 -3v-355q0 -54 12.5 -68.5
t61.5 -18.5v-15h-237v15q52 3 65.5 18t13.5 69v232q0 33 -7.5 46.5t-25.5 13.5z" />
    <glyph glyph-name="eth" unicode="&#xf0;" horiz-adv-x="501" 
d="M469 285q0 -126 -62.5 -210.5t-161.5 -84.5q-93 0 -155.5 66.5t-62.5 166.5q0 101 61 169t151 68q36 0 62 -12.5t64 -47.5q-11 55 -32 92.5t-65 82.5l-123 -65l-33 30l121 64q-62 44 -133 56l42 23q49 -4 81.5 -14t70.5 -33l95 50l33 -30l-91 -48q138 -133 138 -323z
M117 276q0 -106 39 -182t103 -76q57 0 88.5 48.5t31.5 134.5q0 102 -40 166.5t-104 64.5q-53 0 -85.5 -43t-32.5 -113z" />
    <glyph glyph-name="ntilde" unicode="&#xf1;" 
d="M386 626h29q-16 -57 -40 -81.5t-65 -24.5q-32 0 -81 24l-23 11q-24 11 -41 11q-35 0 -51 -46h-29q11 49 37 75t64 26q36 0 70 -18l24 -12q32 -15 53 -15q17 0 28.5 11t24.5 39zM16 398v17q74 22 138 45l7 -2v-79q51 48 80.5 64.5t64.5 16.5q55 0 86.5 -39.5t31.5 -110.5
v-229q0 -37 12 -49.5t49 -16.5v-15h-208v15q38 3 50.5 20t12.5 64v209q0 97 -73 97q-25 0 -46 -11.5t-57 -45.5v-281q0 -27 14 -38t52 -14v-15h-212v15q38 3 50 17.5t12 57.5v248q0 37 -8 50.5t-29 13.5q-19 0 -27 -4z" />
    <glyph glyph-name="ograve" unicode="&#xf2;" 
d="M326 507h-40l-154 97q-29 19 -29 43q0 31 34 31q19 0 42 -23zM250 460q96 0 158 -64t62 -162q0 -104 -64 -174t-158 -70t-156.5 67.5t-62.5 168.5q0 103 61.5 168.5t159.5 65.5zM119 275q0 -107 39 -182t102 -75q56 0 88 48t32 133q0 103 -40 168t-103 65
q-53 0 -85.5 -43t-32.5 -114z" />
    <glyph glyph-name="oacute" unicode="&#xf3;" 
d="M217 507h-40l147 148q23 23 42 23q35 0 35 -32q0 -23 -30 -42zM250 460q96 0 158 -64t62 -162q0 -104 -64 -174t-158 -70t-156.5 67.5t-62.5 168.5q0 103 61.5 168.5t159.5 65.5zM119 275q0 -107 39 -182t102 -75q56 0 88 48t32 133q0 103 -40 168t-103 65
q-53 0 -85.5 -43t-32.5 -114z" />
    <glyph glyph-name="ocircumflex" unicode="&#xf4;" 
d="M406 507h-34l-122 103l-121 -103h-34l124 167h62zM250 460q96 0 158 -64t62 -162q0 -104 -64 -174t-158 -70t-156.5 67.5t-62.5 168.5q0 103 61.5 168.5t159.5 65.5zM119 275q0 -107 39 -182t102 -75q56 0 88 48t32 133q0 103 -40 168t-103 65q-53 0 -85.5 -43
t-32.5 -114z" />
    <glyph glyph-name="otilde" unicode="&#xf5;" 
d="M386 625h29q-16 -57 -40 -81.5t-65 -24.5q-32 0 -81 24l-23 11q-24 11 -41 11q-35 0 -51 -46h-29q11 49 37 75t64 26q36 0 70 -18l24 -12q32 -15 53 -15q17 0 28.5 11t24.5 39zM250 460q96 0 158 -64t62 -162q0 -104 -64 -174t-158 -70t-156.5 67.5t-62.5 168.5
q0 103 61.5 168.5t159.5 65.5zM119 275q0 -107 39 -182t102 -75q56 0 88 48t32 133q0 103 -40 168t-103 65q-53 0 -85.5 -43t-32.5 -114z" />
    <glyph glyph-name="odieresis" unicode="&#xf6;" 
d="M348 619q21 0 36 -15t15 -35t-15 -34.5t-36 -14.5q-20 0 -34 14.5t-14 35.5q0 19 14.5 34t33.5 15zM149 619q21 0 36 -15t15 -35t-15 -34.5t-36 -14.5q-20 0 -34 14.5t-14 35.5q0 19 14.5 34t33.5 15zM250 460q96 0 158 -64t62 -162q0 -104 -64 -174t-158 -70
t-156.5 67.5t-62.5 168.5q0 103 61.5 168.5t159.5 65.5zM119 275q0 -107 39 -182t102 -75q56 0 88 48t32 133q0 103 -40 168t-103 65q-53 0 -85.5 -43t-32.5 -114z" />
    <glyph glyph-name="divide" unicode="&#xf7;" horiz-adv-x="564" 
d="M534 220h-504v66h504v-66zM282 516q23 0 39.5 -17t16.5 -40q0 -22 -17 -38t-40 -16q-22 0 -38 16t-16 38q0 23 16.5 40t38.5 17zM282 101q23 0 39.5 -17t16.5 -40q0 -22 -17 -38t-40 -16q-22 0 -38 16t-16 38q0 23 16.5 40t38.5 17z" />
    <glyph glyph-name="oslash" unicode="&#xf8;" 
d="M125 28q-96 78 -96 199q0 102 61.5 167.5t158.5 65.5q44 0 92 -18l57 109h39l-65 -125q98 -70 98 -192q0 -104 -64 -174t-159 -70q-47 0 -93 21l-65 -123h-37zM340 366l-161 -306q35 -42 82 -42q56 0 87.5 49t31.5 136t-40 163zM158 92l159 304q-37 36 -80 36
q-53 0 -85.5 -43t-32.5 -113q0 -102 39 -184z" />
    <glyph glyph-name="ugrave" unicode="&#xf9;" 
d="M305 507h-40l-154 97q-29 19 -29 43q0 31 34 31q19 0 42 -23zM479 50v-14q-78 -21 -137 -45l-4 2v83q-3 -3 -17.5 -18t-20.5 -20.5t-20.5 -17t-25.5 -16.5t-28 -9.5t-34 -4.5q-55 0 -88 35.5t-33 94.5v252q0 35 -13 48.5t-49 15.5v14h146v-326q0 -31 21 -53.5t50 -22.5
q11 0 26 3t34.5 11.5t33 27t13.5 45.5v235q0 37 -13.5 49t-60.5 14v17h158v-343q0 -35 11.5 -46t45.5 -11h5z" />
    <glyph glyph-name="uacute" unicode="&#xfa;" 
d="M217 507h-40l147 148q23 23 42 23q35 0 35 -32q0 -23 -30 -42zM479 50v-14q-78 -21 -137 -45l-4 2v83q-3 -3 -17.5 -18t-20.5 -20.5t-20.5 -17t-25.5 -16.5t-28 -9.5t-34 -4.5q-55 0 -88 35.5t-33 94.5v252q0 35 -13 48.5t-49 15.5v14h146v-326q0 -31 21 -53.5t50 -22.5
q11 0 26 3t34.5 11.5t33 27t13.5 45.5v235q0 37 -13.5 49t-60.5 14v17h158v-343q0 -35 11.5 -46t45.5 -11h5z" />
    <glyph glyph-name="ucircumflex" unicode="&#xfb;" 
d="M393 507h-34l-122 103l-121 -103h-34l124 167h62zM479 50v-14q-78 -21 -137 -45l-4 2v83q-3 -3 -17.5 -18t-20.5 -20.5t-20.5 -17t-25.5 -16.5t-28 -9.5t-34 -4.5q-55 0 -88 35.5t-33 94.5v252q0 35 -13 48.5t-49 15.5v14h146v-326q0 -31 21 -53.5t50 -22.5q11 0 26 3
t34.5 11.5t33 27t13.5 45.5v235q0 37 -13.5 49t-60.5 14v17h158v-343q0 -35 11.5 -46t45.5 -11h5z" />
    <glyph glyph-name="udieresis" unicode="&#xfc;" 
d="M341 621q21 0 36 -15t15 -35t-15 -34.5t-36 -14.5q-20 0 -34 14.5t-14 35.5q0 19 14.5 34t33.5 15zM142 621q21 0 36 -15t15 -35t-15 -34.5t-36 -14.5q-20 0 -34 14.5t-14 35.5q0 19 14.5 34t33.5 15zM479 50v-14q-78 -21 -137 -45l-4 2v83q-3 -3 -17.5 -18t-20.5 -20.5
t-20.5 -17t-25.5 -16.5t-28 -9.5t-34 -4.5q-55 0 -88 35.5t-33 94.5v252q0 35 -13 48.5t-49 15.5v14h146v-326q0 -31 21 -53.5t50 -22.5q11 0 26 3t34.5 11.5t33 27t13.5 45.5v235q0 37 -13.5 49t-60.5 14v17h158v-343q0 -35 11.5 -46t45.5 -11h5z" />
    <glyph glyph-name="yacute" unicode="&#xfd;" 
d="M217 507h-40l147 148q23 23 42 23q35 0 35 -32q0 -23 -30 -42zM151 -134q28 0 59 62t31 91q0 13 -44 101l-132 284q-12 26 -51 32v14h206v-15q-32 -1 -45 -7t-13 -20q0 -15 10 -38l115 -253l97 276q4 9 4 17q0 25 -48 25v15h135v-15q-18 -2 -28.5 -11.5t-19.5 -33.5
l-154 -408q-40 -108 -79.5 -154t-89.5 -46q-32 0 -53 16.5t-21 41.5q0 18 13 31t30 13q22 0 47 -9t31 -9z" />
    <glyph glyph-name="thorn" unicode="&#xfe;" horiz-adv-x="496" 
d="M5 623v16q93 26 145 44l5 -3v-298q65 78 144 78q73 0 120 -60t47 -153q0 -109 -60.5 -183t-149.5 -74q-32 0 -53.5 9t-47.5 34v-157q0 -47 16 -60.5t72 -14.5v-18h-242v18q44 4 57 16.5t13 51.5v704q0 31 -9.5 41t-39.5 10q-11 0 -17 -1zM155 334v-246q0 -22 34.5 -44
t69.5 -22q54 0 87.5 51.5t33.5 134.5q0 87 -33.5 139.5t-89.5 52.5q-35 0 -68.5 -22t-33.5 -44z" />
    <glyph glyph-name="ydieresis" unicode="&#xff;" 
d="M365 625q21 0 36 -15t15 -35t-15 -34.5t-36 -14.5q-20 0 -34 14.5t-14 35.5q0 19 14.5 34t33.5 15zM166 625q21 0 36 -15t15 -35t-15 -34.5t-36 -14.5q-20 0 -34 14.5t-14 35.5q0 19 14.5 34t33.5 15zM151 -134q28 0 59 62t31 91q0 13 -44 101l-132 284q-12 26 -51 32v14
h206v-15q-32 -1 -45 -7t-13 -20q0 -15 10 -38l115 -253l97 276q4 9 4 17q0 25 -48 25v15h135v-15q-18 -2 -28.5 -11.5t-19.5 -33.5l-154 -408q-40 -108 -79.5 -154t-89.5 -46q-32 0 -53 16.5t-21 41.5q0 18 13 31t30 13q22 0 47 -9t31 -9z" />
    <glyph glyph-name="Iogonek" unicode="&#x12e;" horiz-adv-x="333" 
d="M315 0q-11 -2 -29 -25t-18 -45q0 -17 11 -28t27 -11q28 0 71 36l20 -16q-53 -76 -112 -76q-31 0 -52 22t-21 54q0 46 54 89h-248v19q63 2 80 18t17 72v444q0 55 -16.5 70.5t-80.5 19.5v19h297v-19q-63 -3 -80.5 -19t-17.5 -71v-444q0 -55 18 -71.5t80 -18.5v-19z" />
    <glyph glyph-name="obreve" unicode="&#x14f;" 
d="M362 664h29q-18 -157 -142 -157q-56 0 -96.5 35t-42.5 122h29q11 -50 37.5 -73.5t74.5 -23.5q44 0 67 20t44 77zM250 460q96 0 158 -64t62 -162q0 -104 -64 -174t-158 -70t-156.5 67.5t-62.5 168.5q0 103 61.5 168.5t159.5 65.5zM119 275q0 -107 39 -182t102 -75
q56 0 88 48t32 133q0 103 -40 168t-103 65q-53 0 -85.5 -43t-32.5 -114z" />
    <glyph glyph-name="Ohungarumlaut" unicode="&#x150;" horiz-adv-x="722" 
d="M355 -14q-135 0 -228 95.5t-93 249.5q0 151 92 248t235 97q144 0 235.5 -96.5t91.5 -252.5q0 -151 -92.5 -246t-240.5 -95zM574 328q0 72 -14 128t-35.5 90t-50.5 56t-56.5 30t-56.5 8q-49 0 -88 -21t-61.5 -52.5t-37.5 -74.5t-20.5 -82.5t-5.5 -80.5q0 -51 10 -100
t32 -98t65.5 -79t103.5 -30q61 0 105.5 30t67 79t32.5 98t10 99z" />
    <glyph glyph-name="OE" unicode="&#x152;" horiz-adv-x="889" 
d="M342 668q11 0 69 -3t101 -3h326v-141h-23q-9 67 -39.5 86t-128.5 19h-51q-42 0 -53.5 -4t-11.5 -20v-236h104q70 0 98.5 18.5t33.5 79.5h21v-234h-21q-7 59 -26.5 79t-71.5 20h-138v-245q0 -26 10.5 -35t39.5 -9h130q47 0 79 28t71 100h24l-44 -168h-350q-28 0 -97.5 -3
t-81.5 -3q-127 0 -204.5 89.5t-77.5 238.5q0 79 20 141t51.5 99.5t74 62t83.5 34t83 9.5zM431 131v396q0 55 -23.5 80t-75.5 25q-91 0 -140.5 -80t-49.5 -227q0 -142 48.5 -218t140.5 -76q53 0 76.5 23.5t23.5 76.5z" />
    <glyph glyph-name="oe" unicode="&#x153;" horiz-adv-x="709" 
d="M419 277q2 -42 7 -73.5t17.5 -68.5t39 -57.5t65.5 -20.5q36 0 65.5 20t64.5 68l11 -6q-39 -81 -80 -115t-99 -34q-46 0 -75.5 22t-52.5 73q-29 -51 -62.5 -73t-84.5 -22q-91 0 -148.5 64t-57.5 164q0 103 56.5 172.5t145.5 69.5q47 0 81 -17t71 -59q31 42 60 59t70 17
q61 0 108 -40.5t52 -142.5h-254zM228 431q-45 0 -77 -36.5t-32 -123.5q0 -255 120 -255q103 0 103 183q0 112 -29.5 172t-84.5 60zM418 307h160q0 21 -1 34.5t-5 32.5t-12 30t-23.5 19t-37.5 8q-80 0 -81 -124z" />
    <glyph glyph-name="Scaron" unicode="&#x160;" horiz-adv-x="556" 
d="M434 887l-125 -167h-62l-124 167h34l121 -103l122 103h34zM390 135q0 47 -33 83.5t-80 62.5t-93.5 53.5t-79.5 70.5t-33 100q0 76 51.5 123.5t121.5 47.5q42 0 91 -17t59 -17q26 0 32 34h21l22 -213h-25q-24 88 -73.5 130t-109.5 42q-46 0 -75 -26t-29 -67q0 -40 34 -76
t113 -80q99 -53 143 -104.5t44 -113.5q0 -77 -59 -129.5t-145 -52.5q-50 0 -101.5 17t-63.5 17q-11 0 -19 -9.5t-9 -23.5h-22l-30 212h23q37 -91 86 -134t116 -43q55 0 89 31.5t34 81.5z" />
    <glyph glyph-name="scaron" unicode="&#x161;" horiz-adv-x="389" 
d="M350 676l-125 -167h-62l-124 167h34l121 -103l122 103h34zM284 440q1 0 16 10h11l4 -136h-15q-17 67 -42 95t-68 28q-34 0 -55.5 -19t-21.5 -49q0 -43 43 -68l108 -64q45 -27 64.5 -54.5t19.5 -64.5q0 -52 -41.5 -90t-99.5 -38q-25 0 -67 9t-52 9q-15 0 -23 -12h-13v156
h16q16 -70 38 -99q32 -41 89 -41q38 0 60.5 19.5t22.5 52.5q0 45 -52 75l-58 33q-64 36 -90.5 69t-26.5 75q0 54 38.5 88.5t97.5 34.5q33 0 62 -9.5t35 -9.5z" />
    <glyph glyph-name="Ydieresis" unicode="&#x178;" horiz-adv-x="722" 
d="M475 835q21 0 36 -15t15 -35t-15 -34.5t-36 -14.5q-20 0 -34 14.5t-14 35.5q0 19 14.5 34t33.5 15zM276 835q21 0 36 -15t15 -35t-15 -34.5t-36 -14.5q-20 0 -34 14.5t-14 35.5q0 19 14.5 34t33.5 15zM703 662v-19q-39 -3 -67 -25.5t-71 -88.5l-148 -226v-194
q0 -57 18 -72.5t85 -17.5v-19h-306v19q68 3 84.5 19.5t16.5 81.5v174l-131 192q-50 73 -76 104.5t-43 41.5t-43 11v19h280v-19q-71 -5 -71 -30q0 -19 17 -44l148 -222l143 226q14 23 14 37q0 18 -15 25t-54 8v19h219z" />
    <glyph glyph-name="zacute" unicode="&#x17a;" horiz-adv-x="444" 
d="M189 508h-40l147 148q23 23 42 23q35 0 35 -32q0 -23 -30 -42zM272 30q39 0 62 5t36 22t18 32t12 50l18 -4l-14 -135h-377v15l266 405h-138q-45 0 -61 -16.5t-23 -71.5h-18l3 118h347v-15l-269 -405h138z" />
    <glyph glyph-name="Zcaron" unicode="&#x17d;" horiz-adv-x="611" 
d="M462 886l-125 -167h-62l-124 167h34l121 -103l122 103h34zM402 38q28 0 51 5t38.5 10t29 19t20 21t14.5 27.5t10 26.5t9 29h23l-24 -176h-564v15l437 609h-221q-51 0 -84 -10t-49.5 -32t-22.5 -40t-12 -51h-26l20 171h526v-15l-432 -609h257z" />
    <glyph glyph-name="zcaron" unicode="&#x17e;" horiz-adv-x="444" 
d="M378 674l-125 -167h-62l-124 167h34l121 -103l122 103h34zM272 30q39 0 62 5t36 22t18 32t12 50l18 -4l-14 -135h-377v15l266 405h-138q-45 0 -61 -16.5t-23 -71.5h-18l3 118h347v-15l-269 -405h138z" />
    <glyph glyph-name="florin" unicode="&#x192;" horiz-adv-x="358" 
d="M128 450q2 113 42 173t135 60q45 0 74.5 -17.5t29.5 -44.5q0 -17 -12.5 -29t-29.5 -12q-19 0 -32.5 19t-28 37.5t-37.5 18.5q-57 0 -57 -89v-116h122v-32h-122v-418q0 -106 -43 -162t-126 -56q-41 0 -67.5 15.5t-26.5 39.5q0 16 12 27.5t29 11.5q21 0 46 -30t44 -30
q29 0 38.5 29.5t9.5 109.5v463h-82v32h82z" />
    <glyph glyph-name="uni0197" unicode="&#x197;" horiz-adv-x="336" 
d="M3 314v45h114v194q0 55 -16.5 70.5t-80.5 19.5v19h297v-19q-63 -3 -80.5 -19t-17.5 -71v-194h114v-45h-114v-205q0 -55 18 -71.5t80 -18.5v-19h-297v19q63 2 80 18t17 72v205h-114z" />
    <glyph glyph-name="circumflex" unicode="&#x2c6;" horiz-adv-x="333" 
d="M322 507h-34l-122 103l-121 -103h-34l124 167h62z" />
    <glyph glyph-name="verticallinelowmod" unicode="&#x2cc;" horiz-adv-x="250" 
d="M150 -259h-50v197h50v-197z" />
    <glyph glyph-name="macronsub" unicode="&#x2cd;" horiz-adv-x="333" 
d="M11 -99h311v-54h-311v54z" />
    <glyph glyph-name="tilde" unicode="&#x2dc;" horiz-adv-x="333" 
d="M302 626h29q-16 -57 -40 -81.5t-65 -24.5q-32 0 -81 24l-23 11q-24 11 -41 11q-35 0 -51 -46h-29q11 49 37 75t64 26q36 0 70 -18l24 -12q32 -15 53 -15q17 0 28.5 11t24.5 39z" />
    <glyph glyph-name="uni02DF" unicode="&#x2df;" horiz-adv-x="352" 
d="M146 654l-127 95l31 24l127 -96l128 96l31 -24l-128 -95l128 -96l-31 -24l-128 96l-127 -96l-31 24z" />
    <glyph glyph-name="gammasuper" unicode="&#x2e0;" horiz-adv-x="331" 
d="M326.281 558.763q-12.0596 -3.34961 -25.124 -17.4199q-13.0645 -14.0693 -18.7598 -23.4492q-5.69434 -9.37988 -16.4141 -27.4688l-75.0381 -129.978q2.00977 -4.01953 13.0645 -24.7891t16.415 -31.4893q5.35938 -10.7197 13.0645 -28.8096
q7.7041 -18.0889 11.3896 -32.8291q3.68457 -14.7393 3.68457 -26.7988q0 -42.8789 -20.0996 -72.3584t-60.9678 -29.4795q-34.8398 0 -51.5889 28.1396q-16.75 28.1396 -16.75 65.6582q0 7.37012 0.669922 14.7402q0.669922 7.36914 2.68066 15.0742
q2.00977 7.70508 3.34961 13.3994q1.33984 5.69531 5.35938 14.4053q4.02051 8.70898 5.36035 12.3945q1.33984 3.68457 6.7002 13.7344q5.35938 10.0498 6.69922 12.3945t7.70508 13.3994q6.36426 11.0547 7.03516 12.3955l-97.8184 192.285
q-16.0791 32.1582 -38.1885 36.8486v12.7295h136.007v-12.7295q-13.4004 -0.669922 -22.1104 -8.04004q-8.70898 -7.36914 -8.70898 -20.7695q0 -17.4189 10.3848 -42.209q10.3848 -24.7891 31.1533 -61.3027q20.7695 -36.5146 22.1104 -39.1943
q1.33984 2.00977 24.1191 38.5244q22.7793 36.5137 35.8438 62.9775q13.0645 26.4648 13.0645 41.874q0 13.4004 -8.70898 20.4346q-8.70996 7.03516 -22.1104 7.70508v12.7295h106.527v-12.7295zM203.675 192.282q0 7.36914 -2.67969 17.084
q-2.68066 9.71484 -5.69531 18.0898t-9.04492 21.4395q-6.0293 13.0645 -9.37988 19.0947q-3.34961 6.0293 -10.3838 19.4297q-7.03516 13.3994 -7.70508 14.7393q-1.33984 -2.67969 -6.7002 -11.7246q-5.35938 -9.04492 -7.03418 -12.0596
q-1.67578 -3.01562 -6.03027 -11.0547q-4.35449 -8.04004 -6.03027 -12.0596q-1.6748 -4.02051 -4.68945 -11.3896q-3.01465 -7.37012 -4.01953 -13.0654q-1.00488 -5.69434 -2.01074 -12.7295q-1.00488 -7.03516 -1.00488 -14.4043q0 -23.4492 10.7197 -42.209
t32.8291 -18.7598q38.8594 0 38.8594 49.5791z" />
    <glyph glyph-name="lsuper" unicode="&#x2e1;" horiz-adv-x="187" 
d="M12.7295 688.399v10.7197q66.3281 16.0791 106.527 29.4795l2.67969 -1.33984v-399.98q0 -27.4688 9.04492 -35.8438t41.2041 -10.3848v-10.0498h-158.116v10.0498q31.4893 2.67969 41.5391 12.0596t10.0498 36.1787v319.582q0 23.4492 -6.0293 32.1592
q-6.03027 8.70996 -22.1094 8.70996q-13.4004 0 -24.79 -1.33984z" />
    <glyph glyph-name="ssuper" unicode="&#x2e2;" horiz-adv-x="263" 
d="M190.275 567.793q0.669922 0 10.7197 6.69922h7.36914l2.68066 -91.1172h-10.0498q-11.3896 44.8887 -28.1396 63.6484q-16.749 18.7588 -45.5586 18.7588q-22.7793 0 -37.1846 -12.7295q-14.4043 -12.7295 -14.4043 -32.8291q0 -28.8096 28.8096 -45.5586
l72.3574 -42.8789q30.1494 -18.0898 43.2148 -36.5146q13.0645 -18.4238 13.0645 -43.2139q0 -34.8389 -27.8047 -60.2979q-27.8037 -25.46 -66.6631 -25.46q-16.75 0 -44.8887 6.03027q-28.1396 6.0293 -34.8389 6.0293q-10.0498 0 -15.4102 -8.03906h-8.70996v104.518
h10.7197q10.7197 -46.8994 25.46 -66.3291q21.4395 -27.4688 59.6279 -27.4688q25.46 0 40.5342 13.0645t15.0742 35.1738q0 30.1494 -34.8389 50.249l-38.8594 22.1094q-42.8789 24.1191 -60.6328 46.2285q-17.7549 22.1094 -17.7549 50.249q0 36.1787 25.7949 59.2939
q25.7939 23.1143 65.3232 23.1143q22.1094 0 41.5391 -6.36523q19.4287 -6.36426 23.4492 -6.36426z" />
    <glyph glyph-name="xsuper" unicode="&#x2e3;" horiz-adv-x="332" 
d="M166.156 473.675q7.36914 11.3896 17.4189 25.124q10.0498 13.7354 15.0752 20.7695q5.02441 7.03516 8.70898 14.4053q3.68555 7.36914 3.68555 12.7295q0 12.7295 -26.7998 14.7393v10.0498h105.857v-10.0498q-34.1689 -1.33984 -54.2686 -29.4795l-55.6084 -80.3975
l85.7578 -131.316q14.7393 -22.1094 27.1338 -31.1543t27.8047 -9.04492v-10.0498h-134.667v10.0498q16.75 1.33984 21.7744 4.35449q5.02539 3.01562 5.02539 11.7246q0 6.03027 -4.01953 12.0605l-60.9688 93.7969l-52.9287 -82.4072q-13.3994 -20.7695 -13.3994 -27.4697
q0 -12.0596 26.7988 -12.0596v-10.0498h-97.1475v10.0498q16.75 1.33984 25.7939 7.37012q9.04492 6.0293 23.1152 26.7988l76.3779 110.547l-62.9785 96.4775q-12.0596 18.7598 -21.7744 27.4697t-16.0801 10.7197q-6.36426 2.00977 -19.7637 2.00977v10.0498h138.686
v-10.0498q-28.8086 -0.669922 -28.8086 -14.7393q0 -13.3994 30.8193 -59.6289z" />
    <glyph glyph-name="glottalrevsuper" unicode="&#x2e4;" horiz-adv-x="300" 
d="M172.855 722.908q42.209 0 72.6934 -20.4346t30.4844 -48.5732q0 -11.3896 -9.37988 -19.7646t-22.7793 -8.375q-22.7793 0 -31.4893 30.8193l-4.02051 14.7393q-5.35938 18.7598 -13.3994 25.46q-8.04004 6.69922 -26.1289 6.69922q-40.8691 0 -65.9932 -32.4941
q-25.125 -32.4941 -25.125 -84.082q0 -57.6191 29.1445 -94.1328q29.1445 -36.5146 74.7031 -36.5146q6.03027 0 9.37988 0.334961t6.36426 1.00586q3.01562 0.669922 5.69531 0.669922v-129.978q0 -26.7988 10.0498 -36.1787t41.5391 -12.0596v-10.0498h-158.116v10.0498
q32.1592 2.00977 41.2041 10.3848t9.04492 35.8438v81.7383q-53.5986 3.34961 -87.0977 44.8887q-33.5 41.5391 -33.5 104.518q0 73.6982 43.2139 119.592t103.513 45.8936z" />
    <glyph glyph-name="omicron" unicode="&#x3bf;" 
d="M250 460q96 0 158 -64t62 -162q0 -104 -64 -174t-158 -70t-156.5 67.5t-62.5 168.5q0 103 61.5 168.5t159.5 65.5zM119 275q0 -107 39 -182t102 -75q56 0 88 48t32 133q0 103 -40 168t-103 65q-53 0 -85.5 -43t-32.5 -114z" />
    <glyph glyph-name="uni03D7" unicode="&#x3d7;" horiz-adv-x="534" 
d="M374 -166q-30 0 -56 17.5t-26 46.5q0 17 11.5 28t26.5 11q20 0 34 -17t25 -34t25 -17q19 0 31.5 16.5t18 43t8 48.5t2.5 45q0 5 -1 10h-4q-5 -14 -19 -28t-32 -14q-87 0 -87 172q0 13 0.5 27.5l1 29t0.5 20.5q-96 -72 -138 -115q-18 -82 -36 -108t-44 -26
q-19 0 -29.5 15.5t-10.5 35.5q0 31 17.5 62.5t31.5 46t48 45.5q2 54 2 81q0 106 -63 106q-30 0 -44.5 -22.5t-14.5 -54.5h-19v29q0 31 5.5 57t24.5 48t50 22q90 0 90 -178q0 -26 -2 -67q53 49 134 109q3 27 10 54t25 54.5t42 27.5q18 0 30 -12.5t12 -30.5q0 -79 -93 -156
q0 -14 -0.5 -41t-0.5 -41q0 -105 63 -105q50 0 59 75h19q1 -24 1 -47q0 -68 -7 -118t-17.5 -78.5t-28 -45.5t-35 -22t-40.5 -5z" />
    <glyph glyph-name="endash" unicode="&#x2013;" 
d="M0 257h500v-63h-500v63z" />
    <glyph glyph-name="emdash" unicode="&#x2014;" horiz-adv-x="1000" 
d="M0 257h1000v-63h-1000v63z" />
    <glyph glyph-name="quoteleft" unicode="&#x2018;" horiz-adv-x="250" 
d="M109 537l9 2q8 2 18 2q27 0 43 -14t16 -37q0 -25 -16.5 -41t-42.5 -16q-34 0 -57 25.5t-23 63.5q0 45 31 87t81 67l9 -19q-82 -56 -82 -106q0 -14 14 -14z" />
    <glyph glyph-name="quoteright" unicode="&#x2019;" horiz-adv-x="250" 
d="M141 572l-9 -2q-8 -2 -18 -2q-27 0 -43 14t-16 37q0 25 16.5 41t42.5 16q34 0 57 -25.5t23 -63.5q0 -45 -31 -87t-81 -67l-9 19q82 56 82 106q0 14 -14 14z" />
    <glyph glyph-name="quotesinglbase" unicode="&#x201a;" horiz-adv-x="250" 
d="M142 -2l-8 -2q-9 -2 -19 -2q-27 0 -43 14t-16 37q0 25 16.5 41t42.5 16q34 0 57 -25.5t23 -63.5q0 -45 -31 -87t-81 -67l-9 19q82 56 82 106q0 14 -14 14z" />
    <glyph glyph-name="quotedblleft" unicode="&#x201c;" horiz-adv-x="444" 
d="M303 537l9 2q8 2 18 2q27 0 43 -14t16 -37q0 -25 -16.5 -41t-42.5 -16q-34 0 -57 25.5t-23 63.5q0 45 31 87t81 67l9 -19q-82 -56 -82 -106q0 -14 14 -14zM109 537l9 2q8 2 18 2q27 0 43 -14t16 -37q0 -25 -16.5 -41t-42.5 -16q-34 0 -57 25.5t-23 63.5q0 45 31 87t81 67
l9 -19q-82 -56 -82 -106q0 -14 14 -14z" />
    <glyph glyph-name="quotedblright" unicode="&#x201d;" horiz-adv-x="444" 
d="M335 572l-9 -2q-8 -2 -18 -2q-27 0 -43 14t-16 37q0 25 16.5 41t42.5 16q34 0 57 -25.5t23 -63.5q0 -45 -31 -87t-81 -67l-9 19q82 56 82 106q0 14 -14 14zM141 572l-9 -2q-8 -2 -18 -2q-27 0 -43 14t-16 37q0 25 16.5 41t42.5 16q34 0 57 -25.5t23 -63.5q0 -45 -31 -87
t-81 -67l-9 19q82 56 82 106q0 14 -14 14z" />
    <glyph glyph-name="quotedblbase" unicode="&#x201e;" horiz-adv-x="444" 
d="M335 -2l-8 -2q-9 -2 -19 -2q-27 0 -43 14t-16 37q0 25 16.5 41t42.5 16q34 0 57 -25.5t23 -63.5q0 -45 -31 -87t-81 -67l-9 19q82 56 82 106q0 14 -14 14zM141 -2l-8 -2q-9 -2 -19 -2q-27 0 -43 14t-16 37q0 25 16.5 41t42.5 16q34 0 57 -25.5t23 -63.5q0 -45 -31 -87
t-81 -67l-9 19q82 56 82 106q0 14 -14 14z" />
    <glyph glyph-name="dagger" unicode="&#x2020;" 
d="M405 404q-14 0 -60 15.5t-84 18.5q0 -142 42 -185q-40 -104 -40 -279v-123h-22v123q0 162 -43 279q42 37 42 185q-41 -4 -82.5 -19t-54.5 -15q-44 0 -44 43q0 19 11.5 31.5t28.5 12.5q13 0 55 -17t86 -18q0 64 -18 114t-18 60q0 18 14.5 32t32.5 14t32.5 -14t14.5 -32
q0 -14 -9 -35t-18.5 -56t-9.5 -83q45 1 86 18t57 17q17 0 28 -12.5t11 -31.5t-10.5 -31t-27.5 -12z" />
    <glyph glyph-name="daggerdbl" unicode="&#x2021;" 
d="M297 630q0 -8 -18 -59.5t-18 -114.5q38 1 84 18t58 17q17 0 28 -12.5t11 -31.5t-10.5 -31t-27.5 -12q-14 0 -60 15.5t-83 18.5q0 -76 9 -113.5t31 -64.5q-41 -41 -41 -175q37 3 83 18.5t59 15.5q17 0 28 -12t11 -32q0 -19 -11.5 -31t-28.5 -12q-12 0 -57.5 17t-83.5 18
q0 -63 18 -114t18 -60q0 -18 -14 -32t-33 -14q-18 0 -32 14t-14 32q0 8 18 59.5t18 114.5q-38 -1 -83.5 -18t-57.5 -17q-17 0 -28.5 12.5t-11.5 31.5t11 31t28 12q14 0 59.5 -15.5t82.5 -18.5q0 78 -9.5 116.5t-30.5 58.5q26 26 33.5 61.5t7.5 116.5q-41 -3 -82.5 -18.5
t-54.5 -15.5q-44 0 -44 43q0 19 11.5 31.5t28.5 12.5q12 0 57.5 -17t83.5 -18q0 62 -18 113t-18 61q0 18 14 32t32 14q19 0 33 -14t14 -32z" />
    <glyph glyph-name="bullet" unicode="&#x2022;" horiz-adv-x="350" 
d="M174 466q58 0 97 -39.5t39 -97.5q0 -54 -40 -93.5t-95 -39.5q-56 0 -95.5 39.5t-39.5 96.5q0 56 39 95t95 39z" />
    <glyph glyph-name="ellipsis" unicode="&#x2026;" horiz-adv-x="1000" 
d="M831 100q21 0 36 -15t15 -35t-15 -34.5t-36 -14.5q-20 0 -34 14.5t-14 35.5q0 19 14.5 34t33.5 15zM499 100q21 0 36 -15t15 -35t-15 -34.5t-36 -14.5q-20 0 -34 14.5t-14 35.5q0 19 14.5 34t33.5 15zM165 100q21 0 36 -15t15 -35t-15 -34.5t-36 -14.5q-20 0 -34 14.5
t-14 35.5q0 19 14.5 34t33.5 15z" />
    <glyph glyph-name="perthousand" unicode="&#x2030;" horiz-adv-x="1000" 
d="M200 676q20 0 37 -10.5t29.5 -23t36.5 -23t56 -10.5q44 0 70.5 15.5t93.5 81.5h44l-430 -724h-47l394 658q-28 -32 -54.5 -44.5t-66.5 -12.5q-35 0 -76 14q4 -24 4 -44q0 -79 -48 -153t-118 -74q-50 0 -84 39.5t-34 97.5q0 85 58 149t135 64zM198 649q-14 -7 -24 -13
q-39 -22 -67.5 -85t-28.5 -128q0 -31 15.5 -50.5t41.5 -19.5q53 0 92.5 65t39.5 151q0 24 -6 32t-25.5 18.5t-37.5 29.5zM536 330q46 0 71 -30.5t25 -86.5q0 -91 -50 -161.5t-114 -70.5q-51 0 -86 40t-35 98q0 80 58.5 145.5t130.5 65.5zM548 302q-48 0 -88.5 -76.5
t-40.5 -148.5q0 -29 16 -49t40 -20q51 0 92.5 63.5t41.5 142.5q0 38 -17.5 63t-43.5 25zM898 330q46 0 71 -30.5t25 -86.5q0 -91 -50 -161.5t-113 -70.5q-52 0 -87 40t-35 99q0 80 58.5 145t130.5 65zM909 302q-38 0 -69.5 -46.5t-45 -96.5t-13.5 -80q0 -31 16 -51t40 -20
q51 0 92.5 63.5t41.5 142.5q0 39 -17 63.5t-45 24.5z" />
    <glyph glyph-name="guilsinglleft" unicode="&#x2039;" horiz-adv-x="250" 
d="M107 224q19 -28 53 -70t54.5 -70t20.5 -42q0 -9 -9 -9q-4 0 -21 16q-71 68 -191 173q128 116 197 181q14 13 15 13q10 0 10 -10q0 -14 -20 -42.5t-58 -75.5t-51 -64z" />
    <glyph glyph-name="guilsinglright" unicode="&#x203a;" horiz-adv-x="250" 
d="M143 225q-19 28 -53 70t-54.5 70t-20.5 42q0 9 9 9q4 0 21 -16q71 -68 191 -173q-128 -116 -197 -181q-14 -13 -15 -13q-10 0 -10 10q0 14 20 42.5t58 75.5t51 64z" />
    <glyph glyph-name="Euro" unicode="&#x20ac;" horiz-adv-x="741" 
d="M707 113q-40 -59 -117 -93t-154 -34q-133 0 -219 72t-108 195h-75l20 46h49q-1 9 -1 32q0 14 2 38h-70l20 46h57q26 117 115.5 189t215.5 72q72 0 144.5 -31.5t113.5 -85.5l-12 -27q-108 104 -237 104q-18 0 -38 -3.5t-51.5 -17t-57 -35.5t-48.5 -65t-32 -100h414
l-20 -46h-399q-1 -13 -1 -40q0 -20 1 -30h369l-20 -46h-344q17 -99 77 -161t162 -62q123 0 226 101z" />
    <glyph glyph-name="trademark" unicode="&#x2122;" horiz-adv-x="1008" 
d="M172.718 632.596h-36.7197q-57.1191 0 -76.499 -15.6396q-19.3799 -15.6406 -31.6191 -71.3994h-16.3203l4.08008 115.599h383.516l4.08008 -115.599h-16.3193q-11.5605 56.4395 -30.9395 71.7393q-19.3799 15.2998 -77.1797 15.2998h-36.7197v-347.477
q0 -37.3994 11.5605 -48.2793q11.5596 -10.8799 53.7188 -12.9199v-12.9199h-198.558v12.9199q42.1592 2.71973 53.0391 13.9395q10.8799 11.2207 10.8799 54.7402v339.996zM868.315 601.636l-174.078 -389.636h-9.52051l-170.678 373.996v-274.037
q0 -51.6797 12.2393 -68.3389q12.2402 -16.6602 51.6797 -18.7002v-12.9199h-159.798v12.9199q42.1592 2.71973 54.0596 18.7002q11.8994 15.9795 11.8994 68.3389v276.077q0 37.3994 -11.2197 47.9395t-53.3799 13.2598v12.9199h134.639l157.078 -343.396l150.279 343.396
h135.318v-12.9199q-38.0801 -3.40039 -48.6201 -14.2803t-10.54 -46.9189v-301.917q0 -36.0391 10.8809 -47.2598q10.8789 -11.2197 48.2793 -13.9395v-12.9199h-190.398v12.9199q40.1201 2.71973 51 14.6201q10.8799 11.8994 10.8799 54.0596v308.036z" />
    <glyph glyph-name="ebb" unicode="&#x1d556;" horiz-adv-x="606" 
d="M283 468q116 0 189.5 -60.5t73.5 -161.5q0 -21 -18 -21h-362q0 -99 26 -146.5t100 -47.5q110 0 174 64q40 39 44 39q17 0 17 -12q0 -6 -6.5 -19.5t-24.5 -32t-43 -35.5t-68.5 -28.5t-95.5 -11.5q-122 0 -194.5 63.5t-72.5 174.5q0 105 73 170t188 65zM509 261
q-7 105 -113 150q42 -60 42 -150h71zM402 261q0 73 -31 122t-88 49q-58 0 -87.5 -48t-29.5 -123h236zM166 406q-107 -53 -107 -173q0 -125 103 -176q-34 55 -34 168q0 119 38 181z" />
    <glyph glyph-name="fbb" unicode="&#x1d557;" horiz-adv-x="426" 
d="M96 515q0 93 53.5 145.5t150.5 52.5q157 0 157 -95q0 -27 -20 -48t-48 -21q-29 0 -49.5 21t-20.5 48q0 31 25 53q-7 5 -15 5q-94 0 -94 -179v-46h71q17 0 17 -18q0 -19 -17 -19h-71v-321q0 -27 7 -41t15 -15t15 -5t7 -14q0 -18 -16 -18h-195q-17 0 -17 18q0 19 17 19
q28 0 28 56v321h-57q-17 0 -17 19q0 18 17 18h57v64zM389 586q11 0 21 10t10 22q0 33 -38 47q-2 -9 -14.5 -21.5t-12.5 -25.5q0 -12 10.5 -22t23.5 -10zM237 668q-104 -29 -104 -153v-422q0 -31 -11 -56h86q-10 17 -10 56v404q0 119 39 171z" />
    <glyph glyph-name="jbb" unicode="&#x1d55b;" horiz-adv-x="462" 
d="M290 688q35 0 57.5 -23.5t22.5 -56.5q0 -35 -23.5 -58t-56.5 -23q-35 0 -58 24t-23 57t23 56.5t58 23.5zM68 -36q28 0 49 -20.5t21 -47.5q0 -30 -26 -53q9 -6 20 -6q91 0 91 159v360q0 58 -29 58q-17 0 -17 19q0 18 17 18h149q17 0 17 -17v-436q0 -93 -54 -145t-150 -52
q-156 0 -156 95q0 26 20.5 47t47.5 21zM290 564q17 0 30 13t13 31q0 17 -12.5 30t-30.5 13t-31 -13t-13 -30q0 -18 13 -31t31 -13zM324 -2v416h-76q11 -25 11 -58v-360q0 -99 -36 -150q101 32 101 152zM68 -72q-12 0 -21.5 -10t-9.5 -22q0 -31 31 -44q33 30 33 44
q0 11 -9.5 21.5t-23.5 10.5z" />
    <glyph glyph-name="kbb" unicode="&#x1d55c;" horiz-adv-x="617" 
d="M340 388q0 19 -18.5 26t-18.5 19q0 18 17 18h180q17 0 17 -18q0 -19 -17 -19q-46 0 -188 -130l143 -180q54 -67 65 -67q17 0 17 -19q0 -18 -17 -18h-210q-18 0 -18 18q0 16 20.5 19t22.5 5q-1 10 -24 40l-93 117l-13 -11v-97q0 -54 29 -54q17 0 17 -19q0 -18 -17 -18
h-195q-17 0 -17 18q0 19 17 19q28 0 28 56v493q0 58 -28 58q-17 0 -17 19q0 17 17 17h149q17 0 17 -16v-428l110 100q25 22 25 52zM410 414h-37q2 -8 4 -24q17 14 33 24zM250 218q81 -97 101 -126.5t22 -54.5h91q-64 61 -176 215q-19 -19 -38 -34zM180 37q-12 23 -12 54v553
h-75q11 -27 11 -58v-493q0 -31 -11 -56h87z" />
    <glyph glyph-name="lbb" unicode="&#x1d55d;" horiz-adv-x="346" 
d="M67 588q0 26 -7 39.5t-15.5 15t-15.5 5.5t-7 15q0 17 17 17h149q17 0 17 -16v-571q0 -56 29 -56q17 0 17 -19q0 -18 -17 -18h-195q-17 0 -17 18q0 19 17 19q28 0 28 54v497zM179 37q-11 25 -11 56v551h-75q11 -22 11 -56v-497q0 -29 -11 -54h86z" />
    <glyph glyph-name="nbb" unicode="&#x1d55f;" horiz-adv-x="685" 
d="M205 361q25 39 68 64.5t95 25.5q177 0 177 -142v-216q0 -56 29 -56q17 0 17 -19q0 -18 -17 -18h-195q-17 0 -17 18q0 19 17 19q29 0 29 56v229q0 92 -53 92q-60 0 -105 -46t-45 -106v-169q0 -56 29 -56q17 0 17 -19q0 -18 -17 -18h-195q-17 0 -17 18q0 19 17 19
q28 0 28 56v263q0 58 -28 58q-17 0 -17 19q0 18 17 18h149q17 0 17 -17v-73zM520 37q-11 24 -11 56v216q0 83 -83 100q18 -35 18 -87v-229q0 -31 -11 -56h87zM179 37q-11 25 -11 56v321h-75q11 -25 11 -58v-263q0 -31 -11 -56h86z" />
    <glyph glyph-name="obb" unicode="&#x1d560;" horiz-adv-x="625" 
d="M288 468q119 0 192.5 -66t73.5 -176q0 -106 -73.5 -168.5t-192.5 -62.5t-192.5 62.5t-73.5 168.5q0 109 73.5 175.5t192.5 66.5zM518 226q0 118 -99 174q29 -50 29 -161q0 -127 -32 -180q102 51 102 167zM288 432q-73 0 -98 -47t-25 -146q0 -54 4.5 -88.5t17 -63.5
t37.5 -42.5t64 -13.5q74 0 98.5 49.5t24.5 158.5q0 99 -25 146t-98 47zM159 59q-31 52 -31 180q0 111 28 161q-97 -54 -97 -174q0 -116 100 -167z" />
    <glyph glyph-name="pbb" unicode="&#x1d561;" horiz-adv-x="649" 
d="M336 451q111 0 180 -63t69 -165q0 -103 -65 -165.5t-169 -62.5q-84 0 -146 44v-213q0 -16 -17 -16h-149q-17 0 -17 17q0 20 17 20q28 0 28 57v452q0 58 -28 58q-17 0 -17 18q0 19 17 19h166v-47q53 47 131 47zM549 223q0 117 -99 166q39 -55 39 -168q0 -110 -38 -168
q98 50 98 170zM452 221q0 193 -134 193q-71 0 -113 -66v-258q48 -59 127 -59q120 0 120 190zM168 -153v567h-75q11 -25 11 -58v-452q0 -32 -11 -57h75z" />
    <glyph glyph-name="rbb" unicode="&#x1d563;" horiz-adv-x="499" 
d="M329 451q45 0 77.5 -23t32.5 -61q0 -27 -17.5 -45.5t-45.5 -18.5q-26 0 -44.5 18t-18.5 46q0 29 15 47q-56 -1 -89.5 -63.5t-33.5 -146.5v-111q0 -56 29 -56q16 0 16 -19q0 -18 -16 -18h-195q-17 0 -17 18q0 19 17 19q28 0 28 56v263q0 58 -28 58q-17 0 -17 19
q0 18 17 18h149q17 0 17 -17v-80q39 97 124 97zM403 367q0 28 -37 41q-16 -22 -16 -41q0 -27 26 -27q27 0 27 27zM179 37q-11 25 -11 56v321h-75q11 -25 11 -58v-263q0 -31 -11 -56h86z" />
    <glyph glyph-name="sbb" unicode="&#x1d564;" horiz-adv-x="609" 
d="M59 154q0 -41 40 -70.5t88 -41t94 -11.5q52 0 84 20t32 60q0 48 -97 73l-181 44q-97 33 -97 102q0 68 76 103t183 35q117 0 162 -19q32 19 54 19q14 0 14 -13v-117q0 -17 -20 -17q-17 0 -17 17q0 29 -35 51.5t-78.5 32.5t-81.5 10q-114 0 -114 -64q0 -38 97 -62
q169 -41 181 -47q97 -37 97 -112q0 -74 -75 -113t-184 -39q-125 0 -180 31q-43 -31 -59 -31q-20 0 -20 13v146q0 17 20 17q17 0 17 -17zM474 410v14l-11 -6zM503 147q0 57 -97 87l-180 44q-98 32 -98 90q0 25 10 42q-79 -27 -79 -80q0 -51 97 -76l181 -43q97 -33 97 -100
q0 -33 -15 -57q84 32 84 93zM77 54l-18 15v-27q7 4 18 12z" />
    <glyph glyph-name="tbb" unicode="&#x1d565;" horiz-adv-x="461" 
d="M377 146q0 -74 -24.5 -112.5t-88.5 -38.5q-147 0 -147 127v292h-78q-17 0 -17 19q0 18 17 18q120 0 142 160q7 58 43 58q33 0 33 -44v-174h119q18 0 18 -18q0 -19 -18 -19h-119v-282q0 -94 42 -94t42 106q0 20 18 20t18 -18zM243 32q-22 34 -22 100v491
q-3 -13 -8.5 -36.5t-8 -32.5t-7.5 -25t-8.5 -24t-10 -19t-13.5 -19t-17 -16h5v-329q0 -82 90 -90z" />
    <glyph glyph-name="xbb" unicode="&#x1d569;" horiz-adv-x="646" 
d="M370 388q0 12 -6 19t-12.5 8t-12.5 5.5t-6 12.5q0 18 16 18h180q18 0 18 -18q0 -19 -18 -19q-8 0 -16.5 -2.5t-19.5 -8t-19.5 -10.5t-22 -16t-21.5 -17t-23.5 -20t-22 -20t-23.5 -22t-22 -20l141 -177q51 -64 69 -64q17 0 17 -18q0 -19 -17 -19h-210q-16 0 -16 19
q0 15 17.5 18t19.5 5q-3 13 -89 117l-47 -44q-26 -24 -26 -52q0 -19 19 -26.5t19 -18.5q0 -18 -17 -18h-180q-17 0 -17 18q0 19 17 19q21 0 59 25.5t66.5 50.5t83.5 76l-125 157q-56 68 -64 68q-17 0 -17 18q0 19 17 19h209q17 0 17 -19q0 -15 -19.5 -17.5t-22.5 -5.5
q1 -15 72 -101q3 3 12 11t12 11t9.5 10t9 11t6 10.5t5 13t1.5 13.5zM440 414h-37q4 -9 4 -25zM486 37q-11 11 -35 41l-208 259q-31 40 -37 77h-90l239 -298q35 -44 44 -79h87zM166 37q-4 9 -4 25q-24 -18 -35 -25h39z" />
    <glyph glyph-name="H_fr_bd" unicode="&#x1d573;" horiz-adv-x="712" 
d="M674 239q0 -40 -7.5 -75t-25.5 -66t-34 -53.5t-48.5 -50.5t-52.5 -43.5t-60 -45.5q-63 -48 -76 -64q-54 61 -124 61q-44 0 -66 -28l-17 8q30 53 73.5 91.5t93.5 38.5q65 0 121 -51q42 33 64.5 96t22.5 123q0 43 -16 89t-51 81t-79 35q-32 0 -56 -22q47 -65 47 -113
q0 -38 -24.5 -76t-55.5 -63.5t-70 -59t-57 -56.5l-94 90l-37 -33l-14 16q54 49 130 127l91 -91q28 17 28 44q0 25 -21 61.5t-46.5 68.5t-46.5 75.5t-21 81.5q0 33 19 70.5t40.5 62t56.5 61.5t48 53q54 -36 103 -36q44 0 64 30l13 -9q-23 -60 -57 -94t-91 -34q-46 0 -90 34
q-13 -24 -13 -48q0 -59 82 -139q9 7 31.5 22t35 24t30 22.5t32 27t26.5 28.5q82 -23 140.5 -104t58.5 -167z" />
    <glyph glyph-name="Q_fr_bd" unicode="&#x1d57c;" horiz-adv-x="772" 
d="M711 180q-1 -58 -28.5 -107.5t-80.5 -49.5q-44 0 -68 51q-70 -84 -159 -84q-44 0 -91.5 24t-87.5 47.5t-68 23.5q-23 0 -41 -12t-22 -33l-16 9v4q0 28 11.5 51t27.5 38.5t32 31.5t27.5 39t11.5 51q0 27 -21.5 59.5t-43.5 70t-22 75.5q0 64 37 119t96 93q19 -26 47 -26
q22 0 66 11t66 11q63 0 112 -29.5t77.5 -78t43 -104.5t14.5 -115q0 -73 -29 -178q20 -38 48 -38q16 0 29 14t19 32h13zM593 332q0 95 -48 150.5t-141 55.5q-18 0 -52 -6.5t-51 -6.5q-47 0 -63.5 16.5t-23.5 53t-19 55.5q-34 -26 -34 -60q0 -43 45.5 -113t45.5 -113
q0 -19 -4.5 -37t-16 -37t-19 -30t-25 -32.5t-22.5 -28.5q11 7 25 7q40 0 136 -60.5t131 -60.5q28 0 54 26q-37 57 -77 57q-18 0 -35 -12h-16q15 41 45.5 73.5t67.5 32.5q21 0 42.5 -18.5t33.5 -41.5q21 57 21 130z" />
    <glyph glyph-name="R_fr_bd" unicode="&#x1d57d;" horiz-adv-x="762" 
d="M743 96q-94 -66 -137 -105q-36 23 -56.5 43.5t-30 52.5t-11 58.5t-1.5 84.5q0 112 -42 112q-19 0 -41 -16v-43q0 -63 -10.5 -103t-34 -63.5t-47.5 -37.5t-65 -38t-74 -51l-81 88l-39 -30l-11 14l128 104l87 -99q7 13 7 41v336q0 203 -79 203q-25 0 -40 -18.5t-15 -43.5
q0 -35 36 -96t36 -98q0 -53 -41.5 -88t-101.5 -54l-7 10q47 20 47 63q0 22 -36 83t-36 109q0 69 59.5 118.5t130.5 49.5q48 0 98.5 -23.5t70.5 -63.5l138 88q62 -6 104.5 -40.5t42.5 -93.5q0 -93 -127 -154q50 -20 64 -68t14 -133q0 -106 43 -106q21 0 48 23zM557 503
q0 35 -20.5 64t-54.5 29t-70 -32q12 -67 12 -207q32 14 50 24.5t40.5 27.5t32.5 40.5t10 53.5z" />
    <glyph glyph-name="b_fr_bd" unicode="&#x1d587;" horiz-adv-x="495" 
d="M448 243q0 -57 -10.5 -93.5t-33.5 -56.5t-47 -32t-62.5 -32t-69.5 -45q-23 19 -56 38.5t-50.5 27.5t-61.5 28v10q37 14 37 98v301q0 40 -12.5 78t-40.5 53l8 14q21 -12 53 -12q37 0 104 27t105 27v-18q-60 0 -80.5 -34.5t-20.5 -99.5v-114q72 35 120 103q42 -27 66 -54
t35.5 -62.5t14 -65.5t2.5 -86zM327 196v38q0 165 -64 165q-24 0 -53 -20v-249q48 -40 108 -65q9 48 9 131z" />
    <glyph glyph-name="b_ss_bd" unicode="&#x1d5ef;" horiz-adv-x="566" 
d="M323 509q89 0 149.5 -74.5t60.5 -190.5q0 -113 -60.5 -189t-149.5 -76q-92 0 -139 72v-51h-129v676h129v-240q47 73 139 73zM294 400q-49 0 -79.5 -43t-30.5 -111q0 -72 30 -115.5t80 -43.5q48 0 78.5 44t30.5 112q0 70 -30.5 113.5t-78.5 43.5z" />
    <glyph glyph-name="p_ss_bi" unicode="&#x1d665;" horiz-adv-x="566" 
d="M289 501l-16 -75q65 83 157 83q74 0 117 -52t43 -140q0 -140 -79.5 -239.5t-191.5 -99.5q-95 0 -123 81l-56 -261h-130l149 703h130zM376 405q-59 0 -103.5 -65.5t-44.5 -153.5q0 -47 22.5 -75.5t59.5 -28.5q59 0 103.5 64.5t44.5 152.5q0 48 -22.5 77t-59.5 29z" />
    <glyph glyph-name="finalsigma_bi" unicode="&#x1d747;" horiz-adv-x="470" 
d="M253 433q-78 0 -142.5 -57t-64.5 -155q0 -41 29.5 -64.5t71.5 -34.5t84 -23t71.5 -40.5t29.5 -76.5q0 -81 -50.5 -125t-151.5 -44q-41 0 -72.5 18.5t-31.5 47.5q0 21 12 31.5t30 10.5q11 0 22 -5t16.5 -9t17 -14.5t13.5 -12.5q30 -26 64 -26q35 0 54 18.5t19 43.5
q0 34 -30 50.5t-72 23.5t-84.5 19.5t-72.5 51.5t-30 107q0 130 83 212t220 82q76 0 113 -33t37 -75q0 -33 -18.5 -51.5t-46.5 -18.5q-32 0 -50 19t-18 43q0 11 3.5 26.5t3.5 21.5q0 19 -17 29t-42 10z" />
    <glyph glyph-name="phi_bi" unicode="&#x1d74b;" horiz-adv-x="643" 
d="M318 -8l-57 -198h-120l55 193q-84 0 -136 57.5t-52 145.5q0 98 66.5 185t156.5 87q77 0 91 -50l-28 -26q-4 11 -15 21.5t-26 10.5q-36 0 -66 -48.5t-45 -113t-15 -121.5q0 -113 80 -113l64 221q28 94 83.5 156.5t141.5 62.5q52 0 77 -34t25 -88q0 -78 -33 -151
t-98 -127.5t-149 -69.5zM561 329q0 95 -59 95q-35 0 -57 -32t-32 -72l-85 -294q95 21 164 113.5t69 189.5z" />
    <glyph glyph-name="rhosymbol_bi" unicode="&#x1d754;" horiz-adv-x="550" 
d="M23 148q-5 -3 -10.5 -45t-5.5 -63q0 -53 20.5 -83t51.5 -36.5t67.5 -11t67.5 -6.5t51.5 -23t20.5 -62q0 -25 -7 -58h-29v2q0 13 -14 21t-36.5 11.5t-43.5 4.5t-43 1t-27 1q-118 12 -118 169q0 79 20 163t58.5 162t106.5 128.5t153 50.5q82 0 132 -46.5t50 -128.5
q0 -123 -90.5 -217.5t-212.5 -94.5q-69 0 -115.5 45t-46.5 114v2zM345 377q0 69 -46 69q-33 0 -63 -45.5t-48.5 -107.5t-29.5 -120t-11 -89q0 -68 45 -68q33 0 63.5 45t49 107.5t29.5 120t11 88.5z" />
    <glyph glyph-name="Alpha_ss_bd" unicode="&#x1d756;" horiz-adv-x="671" 
d="M464 136h-253l-45 -136h-142l240 676h154l234 -676h-143zM426 252l-88 264l-88 -264h176z" />
    <glyph glyph-name="Kappa_ss_bd" unicode="&#x1d75f;" horiz-adv-x="666" 
d="M208 226v-226h-139v676h139v-297l264 297h164l-270 -291l299 -385h-166l-222 298z" />
    <glyph glyph-name="Xi_ss_bd" unicode="&#x1d763;" horiz-adv-x="597" 
d="M527 558h-527v118h527v-118zM475 287h-418v118h418v-118zM541 0h-541v118h541v-118z" />
    <glyph glyph-name="alpha_ss_bd" unicode="&#x1d770;" horiz-adv-x="585" 
d="M342 248q0 36 -8 66t-34 54.5t-67 24.5q-112 0 -112 -149q0 -146 110 -146q111 0 111 150zM0 248q0 72 21.5 124.5t58 79t74.5 38.5t79 12q86 -1 136 -46v38h114v-394l31 21l35 -106q-62 -29 -104 -29q-23 0 -45 12t-32 27q-56 -38 -135 -38q-233 0 -233 261z" />
    <glyph glyph-name="phisymbol_ss_bd" unicode="&#x1d78d;" horiz-adv-x="778" 
d="M319 92v342q-49 -8 -78 -54.5t-29 -116.5t29 -116.5t78 -54.5zM459 435v-343q48 9 77.5 55t29.5 114q0 72 -29 119t-78 55zM459 548q117 -7 182 -82.5t65 -206.5q0 -124 -66.5 -199t-180.5 -82v-179h-140v178q-116 6 -181.5 82t-65.5 204t66 204t181 82v180h140v-181z
" />
    <glyph glyph-name="Phi_ss_bi" unicode="&#x1d7a5;" horiz-adv-x="708" 
d="M455 604q97 -6 150 -64.5t53 -142.5q0 -78 -39.5 -155t-120 -134t-182.5 -63l-16 -68h-121l16 68q-95 6 -149 61t-54 139q0 57 24 117t66 112.5t109 88.5t145 41l19 75h119zM345 156q84 18 132.5 81.5t48.5 133.5q0 48 -28.5 78t-69.5 40zM306 489q-89 -19 -135 -81.5
t-46 -131.5q0 -50 28 -80t70 -40z" />
    <glyph glyph-name="nabla_ss_bi" unicode="&#x1d7a9;" horiz-adv-x="678" 
d="M-1 676l128 -3l552 3l-445 -700h-123zM215 151q19 34 245 402h-298q53 -399 53 -402z" />
    <glyph glyph-name="alpha_ss_bi" unicode="&#x1d7aa;" horiz-adv-x="598" 
d="M212 101q38 0 67.5 18.5t45.5 44.5t26.5 57t13.5 52t3 35q0 47 -20 66.5t-57 19.5q-44 0 -77.5 -26t-49.5 -63.5t-23.5 -69.5t-7.5 -54q0 -80 79 -80zM392 -11q-46 0 -66 39q-65 -38 -141 -38q-175 0 -175 154q0 27 6.5 65.5t27.5 91.5t53 96.5t90 74.5t132 31
q42 -1 70 -10.5t51 -34.5l10 37h111l-101 -386l-2 -6l36 21l6 -106q-72 -29 -108 -29z" />
  </font>
</defs>
</svg>
