<?xml version="1.0" standalone="no"?>
<!DOCTYPE svg PUBLIC "-//W3C//DTD SVG 1.1//EN" "http://www.w3.org/Graphics/SVG/1.1/DTD/svg11.dtd" >
<svg xmlns="http://www.w3.org/2000/svg">
<metadata></metadata>
<defs>
<font id="com4t_fine_regularregular" horiz-adv-x="1210" >
<font-face units-per-em="2048" ascent="1707" descent="-341" />
<missing-glyph horiz-adv-x="490" />
<glyph horiz-adv-x="2048" />
<glyph horiz-adv-x="2048" />
<glyph unicode="&#xd;" horiz-adv-x="490" />
<glyph unicode=" "  horiz-adv-x="490" />
<glyph unicode="&#x09;" horiz-adv-x="490" />
<glyph unicode="&#xa0;" horiz-adv-x="490" />
<glyph unicode="!" horiz-adv-x="397" d="M0 60q0 36 25.5 61.5t62.5 25.5q35 0 60.5 -25.5t25.5 -61.5t-25.5 -61.5t-60.5 -25.5q-36 0 -62 25.5t-26 61.5zM6 1406h162l-59 -1079h-45z" />
<glyph unicode="&#x22;" horiz-adv-x="641" d="M0 1079q32 129 44 225q11 80 13 84q15 41 58 41q63 0 62 -61q1 -11 -4 -21q-27 -36 -153 -276zM205 1079q31 129 44 225q10 80 13 84q15 41 58 41q61 0 61 -61q0 -11 -3 -21q-27 -36 -153 -276z" />
<glyph unicode="#" horiz-adv-x="1253" d="M0 462v41h215l38 409h-231v41h234l38 407h116l-38 -407h275l37 407h116l-37 -407h159v-41h-163l-37 -409h178v-41h-182l-42 -467h-116l42 467h-274l-42 -467h-116l42 467h-212zM331 503h275l37 409h-274z" />
<glyph unicode="$" horiz-adv-x="985" d="M0 98l43 65q137 -131 305 -131q125 0 204 74.5t79 205.5q0 222 -289 383q-324 181 -310 439q6 121 95 198q85 74 218 87v123h41v-121h1.5h1.5q64 -3 118 -18q132 -34 195 -121l-51 -52q-34 50 -93 89q-81 55 -171 54q-102 0 -174 -57.5t-79 -147.5q-13 -176 247 -329 q212 -124 295 -254q66 -104 66 -243q0 -156 -112 -257q-100 -90 -244 -103v-131h-41v130q-195 1 -345 117z" />
<glyph unicode="%" horiz-adv-x="1925" d="M0 1040q0 156 110 267t265 111t265.5 -111t110.5 -267t-110.5 -266.5t-265.5 -110.5q-156 0 -265.5 110.5t-109.5 266.5zM130 1040q0 -155 71 -249q68 -89 174 -89q105 0 173 89q72 94 72 249t-72 249q-68 90 -173 90q-106 0 -174 -90q-72 -94 -71 -249zM410 -5l822 1412 h49l-822 -1412h-49zM941 363q0 156 110 266.5t264 110.5q156 0 266 -110.5t110 -266.5t-110 -267t-266 -111q-155 0 -264.5 111t-109.5 267zM1071 363q0 -156 71 -249q68 -90 173 -90q106 0 176 91.5t70 247.5q0 155 -72 249q-68 89 -174 89q-105 0 -173 -89 q-72 -94 -71 -249z" />
<glyph unicode="&#x26;" horiz-adv-x="1345" d="M0 296q0 259 350 481l-12 16q-165 204 -174 347q-8 114 78 198.5t227 84.5q116 0 194 -68t78 -182q0 -184 -264 -370q61 -77 380 -479q96 155 142 359l81 -13q-56 -142 -81 -197q-51 -109 -108 -191l227 -288h-161l-146 190q-61 -66 -134 -119q-46 -34 -132 -60 q-100 -31 -196 -31q-222 0 -309 164q-40 74 -40 158zM114 347q0 -89 54 -170q94 -142 270 -142q97 0 195 56q78 45 150 131l-402 516q-267 -192 -267 -391zM286 1158q2 -74 46 -153q31 -55 117 -165q215 147 215 332q0 207 -193 207q-86 0 -137.5 -59t-47.5 -162z" />
<glyph unicode="'" horiz-adv-x="164" d="M0 1079q32 129 44 225q11 80 13 84q15 41 58 41q63 0 62 -61q1 -11 -4 -21q-27 -36 -153 -276z" />
<glyph unicode="(" horiz-adv-x="577" d="M0 683q0 415 181.5 717.5t438.5 302.5v-44q-207 0 -339 -289q-127 -278 -127 -687q0 -410 127 -688q132 -289 339 -289v-44q-257 0 -438.5 302.5t-181.5 718.5z" />
<glyph unicode=")" horiz-adv-x="876" d="M0 -294q207 0 339 289q126 278 126 688t-126 687q-132 289 -339 289v44q256 0 438 -302.5t182 -717.5t-182 -718t-438 -303v44z" />
<glyph unicode="*" horiz-adv-x="822" d="M-8 963q0 35 31 53q46 14 235 80q-106 33 -235 80q-31 17 -31 54q0 61 61 61q17 0 31 -8q35 -33 188 -163q-14 79 -34 167q-15 63 -15 76q0 63 63 63q61 0 61 -63q0 -14 -15 -76q-19 -89 -34 -167q82 75 188 163q14 8 31 8q62 0 62 -61q0 -36 -32 -54q-46 -14 -235 -80 q106 -32 235 -80q31 -18 31 -53q0 -63 -61 -63q-17 0 -31 9q-35 33 -188 164q14 -79 34 -167q15 -63 15 -78q0 -61 -61 -61q-63 0 -63 61q0 15 15 78q20 89 34 167q-81 -75 -188 -164q-14 -8 -31 -8q-61 0 -61 62z" />
<glyph unicode="+" horiz-adv-x="1064" d="M0 420v56h406v406h55v-406h407v-56h-407v-405h-55v405h-406z" />
<glyph unicode="," horiz-adv-x="440" d="M0 -215q32 130 44 226q11 80 13 85q15 41 58 41q63 0 62 -62q1 -10 -4 -20q-27 -36 -153 -277z" />
<glyph unicode="-" horiz-adv-x="1132" d="M0 420v56h868v-56h-868z" />
<glyph unicode="." horiz-adv-x="436" d="M0 60q0 36 25.5 62t62.5 26q35 0 60.5 -26t25.5 -62t-25.5 -61.5t-60.5 -25.5q-36 0 -62 25.5t-26 61.5z" />
<glyph unicode="/" horiz-adv-x="1200" d="M0 -5l941 1412h65l-941 -1412h-65z" />
<glyph unicode="0" d="M125 702q0 333 140 536q134 192 340 192q205 0 339 -192q141 -203 141 -536q0 -332 -141 -535q-134 -193 -339 -193q-206 0 -340 193q-140 203 -140 535zM269 702q0 -308 97 -499q94 -183 239 -184q143 0 238 184q99 191 99 499q0 309 -99 499q-94 183 -238 184 q-144 0 -239 -184q-98 -190 -97 -499z" />
<glyph unicode="1" d="M482 1365v42h246v-1412h-139v1370h-107z" />
<glyph unicode="2" horiz-adv-x="1009" d="M56 -6q255 218 440.5 544.5t185.5 559.5q0 286 -247 286q-158 0 -286 -142l-40 52q132 137 326 136q197 0 300 -90q98 -84 98 -234q0 -160 -161 -436q-168 -292 -438 -571h661v-104z" />
<glyph unicode="3" d="M197 131l50 51q143 -165 324 -165q141 0 223 112q75 100 75 249q0 171 -95 268q-88 89 -237 100q-19 0 -9 0v52q130 2 206 95q71 88 70 221q0 121 -75 196.5t-184 75.5q-165 0 -276 -141l-44 42q123 143 326 143q173 0 285 -86q117 -89 117 -230q0 -98 -77.5 -193 t-191.5 -142q143 -40 234 -145q96 -112 96 -255q0 -176 -130 -293q-125 -113 -306 -112q-106 0 -213 43t-168 114z" />
<glyph unicode="4" d="M129 315l762 1115v-1049h190v-65h-190v-321h-139v321zM228 381h524v765z" />
<glyph unicode="5" horiz-adv-x="1079" d="M126 130l50 47q115 -157 279 -157q149 0 247 121t98 300q0 182 -104 293q-96 102 -232 102q-180 0 -291 -102l69 673h605v-103h-567l-49 -473q113 67 267 67q193 0 317.5 -128t124.5 -327q0 -200 -137 -334.5t-338 -134.5q-208 0 -339 156z" />
<glyph unicode="6" d="M155 667q0 336 160 558q147 205 337 205q162 0 286 -93l-38 -60q-112 107 -251 107q-150 0 -251 -216q-97 -208 -96 -507q0 -317 86 -485q83 -157 231 -157q138 0 220 144q75 131 75 323q0 171 -78 269q-73 94 -194 95q-140 0 -232 -117l-38 43q102 122 272 122 q172 0 292 -116.5t120 -289.5q0 -204 -121 -357q-127 -162 -318 -161q-172 0 -300 147q-163 188 -162 546z" />
<glyph unicode="7" horiz-adv-x="1006" d="M129 1304v103h806q-476 -847 -516 -1412h-161q47 270 197 602q115 256 369 707h-695z" />
<glyph unicode="8" horiz-adv-x="1181" d="M147 387q0 141 91 251.5t233 146.5q-107 35 -174.5 120.5t-67.5 192.5q0 138 106 235t258 97q151 0 257.5 -97t106.5 -235q0 -107 -68.5 -193t-176.5 -121q141 -38 230 -146q91 -111 91 -251q0 -171 -129.5 -292t-312.5 -121q-184 0 -314 121t-130 292zM273 387 q0 -152 93 -260t225 -108q131 0 223.5 108t92.5 260t-93 260t-223 108q-132 0 -225 -108t-93 -260zM349 1098q0 -119 71.5 -204t172.5 -85t172 85t71 204q0 121 -71 205.5t-172 84.5t-172.5 -84.5t-71.5 -205.5z" />
<glyph unicode="9" d="M170 963q0 183 125 325t296 142q182 0 300 -148q149 -187 149 -569q0 -330 -145 -539q-140 -200 -344 -200q-180 0 -296 87l36 57q112 -98 263 -98q166 0 258 202q85 189 86 495q0 668 -310 668q-129 0 -204.5 -116t-75.5 -304q0 -154 71 -262q73 -112 182 -111 q150 0 233 124l42 -39q-109 -133 -277 -133q-160 0 -278 134q-112 127 -111 285z" />
<glyph unicode=":" horiz-adv-x="427" d="M0 196q0 36 25.5 61t62.5 25q35 0 60.5 -25.5t25.5 -60.5q0 -36 -25.5 -62t-60.5 -26q-36 0 -62 25.5t-26 62.5zM0 612q0 36 25.5 61.5t62.5 25.5q35 0 60.5 -25.5t25.5 -61.5t-25.5 -61.5t-60.5 -25.5q-36 0 -62 25.5t-26 61.5z" />
<glyph unicode=";" horiz-adv-x="442" d="M0 -71q32 129 44 227q11 80 13 84q15 41 58 41q63 0 62 -63q1 -10 -4 -20q-27 -36 -153 -275zM22 612q0 36 25.5 61.5t61.5 25.5t62 -25.5t26 -61.5t-25.5 -61.5t-62.5 -25.5q-36 0 -61.5 25.5t-25.5 61.5z" />
<glyph unicode="&#x3c;" horiz-adv-x="765" d="M0 702l494 705h40l-372 -705l372 -705h-40z" />
<glyph unicode="=" horiz-adv-x="1045" d="M0 276v56h868v-56h-868zM0 575v55h868v-55h-868z" />
<glyph unicode="&#x3e;" horiz-adv-x="761" d="M0 -3l372 705l-372 705h41l493 -705l-493 -705h-41z" />
<glyph unicode="?" horiz-adv-x="864" d="M0 1311q110 119 304 119q193 0 313 -100q109 -93 109 -224q0 -121 -105 -254q-97 -116 -193 -232q-102 -146 -100 -293h-47q-2 149 74 291q71 113 142 225q77 131 78 254q0 132 -66 207q-71 80 -205 80q-142 0 -256 -138zM220 60q0 36 25.5 61.5t61.5 25.5q35 0 61 -25.5 t26 -61.5t-26 -61.5t-61 -25.5q-36 0 -61.5 25.5t-25.5 61.5z" />
<glyph unicode="@" horiz-adv-x="1650" d="M0 695q0 299 211.5 511t509.5 212q187 0 347 -85.5t252 -233.5q89 -140 89 -289q0 -76 -24 -166q-31 -121 -131.5 -210.5t-202.5 -89.5q-182 0 -222 151q-108 -144 -260 -145q-108 0 -182 70q-77 73 -78 190q0 48 14 98q39 147 173 250q127 99 255 99q32 -1 57 -6 q63 -11 83 -41l-35 -44q-40 52 -112 52q-189 0 -280 -316q-23 -80 -23 -146q0 -170 131 -169q91 0 170 79t116 214l95 359h140l-129 -479q-7 -31 -7 -56q0 -117 105 -117q86 0 161 70q80 76 105 197q11 56 11 112q0 147 -76 273q-200 331 -542 331q-275 0 -455 -198 q-175 -192 -175 -477q0 -283 175 -477q180 -198 455 -198q184 0 350 107q160 102 218 250l58 -41q-96 -165 -259 -262q-170 -100 -367 -100q-298 0 -509.5 211.5t-211.5 509.5z" />
<glyph unicode="A" horiz-adv-x="1231" d="M-121 -5l558 1435l561 -1435h-145l-232 599h-325v43h308l-214 553l-462 -1195h-49z" />
<glyph unicode="B" horiz-adv-x="1089" d="M0 -5v1411h239q201 0 336 -63q175 -83 175 -253q0 -104 -86 -205q-77 -93 -182 -137q151 -27 247 -112q111 -99 111 -250q0 -215 -188 -315q-146 -78 -383 -78h-12q-42 0 -257 2zM135 36h78q491 1 491 350q0 171 -107 256q-91 72 -242 74l-77 1v42h61q146 0 220 116 q55 86 54 197q0 293 -389 293h-3h-86v-1329z" />
<glyph unicode="C" horiz-adv-x="1315" d="M-24 702q0 294 175 505q179 216 434 216q249 0 413 -141l-54 -63q-149 160 -359 160q-206 0 -331 -199q-119 -189 -120 -478q0 -283 139 -478q140 -199 349 -199q242 0 372 213l60 -47q-159 -210 -432 -210q-258 0 -452 216t-194 505z" />
<glyph unicode="D" horiz-adv-x="1324" d="M0 -5v1411h350q249 0 448 -128q286 -184 286 -571q0 -388 -285 -580q-200 -133 -443 -133zM135 38h128q272 0 449 127q238 172 237 542q-2 364 -244 535q-174 123 -421 123h-149v-1327z" />
<glyph unicode="E" horiz-adv-x="885" d="M0 -5v1414h634v-44h-496v-571h447v-42h-447v-714h520v-43h-658z" />
<glyph unicode="F" horiz-adv-x="857" d="M0 -5v1414h634v-44h-496v-571h447v-42h-447v-757h-138z" />
<glyph unicode="G" horiz-adv-x="1365" d="M-16 702q0 294 175 505q179 217 434 217q267 0 430 -151l-49 -61q-162 167 -381 167q-206 0 -331 -198q-119 -190 -120 -479q0 -283 139 -478q140 -198 349 -198q174 0 298 98v562h134v-488q-155 -217 -432 -217q-258 0 -452 216t-194 505z" />
<glyph unicode="H" horiz-adv-x="1295" d="M0 -5v1411h138v-612h674v613h138v-1410h-138v755h-674v-757h-138z" />
<glyph unicode="I" horiz-adv-x="483" d="M0 -3v1410h138v-1410h-138z" />
<glyph unicode="J" horiz-adv-x="486" d="M-158 -270q76 0 120 73.5t44 191.5v1412h136v-1412q0 -133 -83.5 -221.5t-216.5 -88.5v45z" />
<glyph unicode="K" horiz-adv-x="1134" d="M0 -3v1410h138v-1410h-138zM214 721l589 686h51l-534 -624l610 -788h-163z" />
<glyph unicode="L" horiz-adv-x="862" d="M0 -5v1414h138v-1371h520v-43h-658z" />
<glyph unicode="M" horiz-adv-x="1533" d="M0 -5l94 1437l557 -1242l530 1244l94 -1439h-137l-72 1075l-470 -1096l-482 1078l-68 -1057h-46z" />
<glyph unicode="N" horiz-adv-x="1176" d="M0 -5v1435l868 -1164v1141h42v-1433l-868 1175v-1154h-42z" />
<glyph unicode="O" horiz-adv-x="1648" d="M0 702q0 304 195 510q199 211 506 211h3q309 0 509 -211q196 -206 196 -510q0 -305 -196 -510q-198 -211 -506 -211h-3q-309 0 -509 211q-195 205 -195 510zM150 702q0 -292 149 -486q156 -201 405 -201q248 0 404 201q149 194 149 486t-149 486q-156 201 -404 201 q-249 0 -405 -201q-149 -193 -149 -486z" />
<glyph unicode="P" horiz-adv-x="1002" d="M0 -5v1411q101 2 316 3h8q483 0 483 -384q1 -163 -137 -275q-133 -109 -313 -108h-13q-42 0 -71 1v42h41q170 0 266 102q90 93 90 240q0 341 -386 341h-9l-140 -2v-1371h-135z" />
<glyph unicode="Q" horiz-adv-x="1655" d="M0 702q0 304 195 510q199 211 506 211h3q309 0 509 -211q196 -206 196 -510q0 -258 -147 -452.5t-389 -250.5q168 -17 276 -54q144 -48 266 -150l-117 -110q-160 160 -283 224q-137 72 -311 72q-309 0 -509 211q-195 205 -195 510zM150 702q0 -292 149 -486 q156 -201 405 -201q248 0 404 201q149 194 149 486t-149 486q-156 201 -404 201q-249 0 -405 -201q-149 -193 -149 -486z" />
<glyph unicode="R" horiz-adv-x="1070" d="M0 -5v1411q32 2 247 3h14q483 0 483 -343q0 -137 -88.5 -224t-241.5 -105l429 -743h-149l-452 785q33 -2 64 -2q302 0 302 283q0 308 -367 308h-12l-92 -2v-1371h-137z" />
<glyph unicode="S" horiz-adv-x="985" d="M0 98l43 65q137 -131 305 -131q125 0 204 74.5t79 205.5q0 223 -289 383q-311 174 -311 418q0 11 1 21q7 131 110 211q100 76 247 76q64 -3 118 -18q132 -34 195 -121l-51 -52q-34 50 -93 89q-80 54 -168 54h-3q-102 0 -174 -57.5t-79 -147.5q-1 -8 -1 -17 q0 -167 248 -312q212 -124 295 -254q66 -104 66 -243q0 -167 -126 -269q-114 -92 -268 -92q-197 0 -348 117z" />
<glyph unicode="T" horiz-adv-x="822" d="M0 1365v44h882v-44h-370v-1370h-138v1370h-374z" />
<glyph unicode="U" horiz-adv-x="1220" d="M0 437v970h138v-961q0 -416 342 -416t343 416v961h137v-970q0 -214 -148 -341q-134 -114 -332 -114q-197 0 -332 115q-148 126 -148 340z" />
<glyph unicode="V" horiz-adv-x="1330" d="M0 1406h159l457 -1174l454 1174h48l-557 -1434z" />
<glyph unicode="W" horiz-adv-x="1677" d="M0 1405l148 1l321 -1108l351 1128l385 -1140l325 1118h50l-419 -1431l-388 1145l-362 -1143z" />
<glyph unicode="X" horiz-adv-x="1276" d="M0 -6l480 708l-414 702l158 2l348 -590l377 590h51l-403 -632l460 -782h-158l-395 669l-452 -667h-52z" />
<glyph unicode="Y" horiz-adv-x="1176" d="M0 1406l151 1l407 -694l362 693h47l-384 -731v-681h-136v647z" />
<glyph unicode="Z" horiz-adv-x="1068" d="M0 -5l705 1369h-648v42l808 1l-706 -1369h707v-44z" />
<glyph unicode="[" horiz-adv-x="405" d="M0 -338v2041h402v-40h-262v-1961h262v-40h-402z" />
<glyph unicode="\" horiz-adv-x="1100" d="M0 1407h63l822 -1412h-62z" />
<glyph unicode="]" horiz-adv-x="665" d="M0 -298h261v1961h-261v40h402v-2041h-402v40z" />
<glyph unicode="^" horiz-adv-x="1103" d="M0 872l437 551l437 -551l-21 -19l-416 388l-417 -388z" />
<glyph unicode="_" horiz-adv-x="1452" d="M0 -5v55h1186v-55h-1186z" />
<glyph unicode="`" horiz-adv-x="161" d="M-3 1368q0 61 61 61q44 0 58 -41q2 -45 57 -309l-19 -8q-58 121 -110 203q-43 68 -44 73q-3 10 -3 21z" />
<glyph unicode="a" horiz-adv-x="926" d="M0 262q0 138 100 218q88 72 204 72q32 -1 60 -6q71 -10 115 -37l-27 -47q-67 42 -148 42q-82 0 -127.5 -65.5t-45.5 -182.5q0 -102 51.5 -165t129.5 -63q133 0 219 136v401q0 283 -196 284q-118 0 -211 -73l-31 50q90 68 242 68q327 0 327 -329l-1 -1v-569h-130v70 q-76 -82 -217 -82q-130 0 -217 70q-97 76 -97 209z" />
<glyph unicode="b" horiz-adv-x="1000" d="M0 -5v1365h130v-1145q25 -81 85 -134t126 -53q122 0 195.5 113.5t73.5 296.5q0 180 -75 295.5t-191 115.5q-64 0 -123 -43l-29 48q68 38 158 38q173 0 287.5 -132t114.5 -322q0 -191 -114.5 -323t-287.5 -132q-131 0 -220 98v-86h-130z" />
<glyph unicode="c" horiz-adv-x="872" d="M0 438q0 188 132.5 321t319.5 133q150 0 270 -91l-31 -53q-96 97 -235 97h-3q-131 0 -223 -125q-88 -122 -88 -282q0 -165 83 -284q90 -127 228 -128q163 0 266 132l41 -53q-131 -122 -308 -122q-187 0 -319.5 133t-132.5 322z" />
<glyph unicode="d" horiz-adv-x="1018" d="M0 438q0 190 114.5 322t287.5 132q74 0 158 -38l-26 -51q-61 46 -137 46q-101 0 -176 -115q-79 -121 -79 -296q0 -183 73.5 -296.5t195.5 -113.5q66 0 126 53t84 134v1145h131v-1365h-131v86q-90 -98 -219 -98q-173 0 -287.5 132t-114.5 323z" />
<glyph unicode="e" horiz-adv-x="992" d="M0 438q0 189 125.5 321.5t311.5 132.5q142 0 244.5 -99.5t102.5 -241.5h-546v42h412q-9 256 -213 256q-132 0 -213.5 -115t-81.5 -296q0 -185 80 -296q83 -116 231 -116q166 0 266 132l42 -51q-124 -124 -309 -124q-187 0 -319.5 133t-132.5 322z" />
<glyph unicode="f" horiz-adv-x="617" d="M0 840v42h77v191q0 287 301 287v-45q-91 0 -131 -54.5t-40 -187.5v-191h175v-42h-175v-845h-130v845h-77z" />
<glyph unicode="g" horiz-adv-x="1010" d="M0 451q0 189 113 319t284 130q130 0 219 -97v86h128v-793q0 -197 -111 -317t-293 -120q-94 0 -160 26l15 70q81 -46 176 -46h4q240 0 241 381v581q-24 80 -84 132.5t-126 52.5q-121 0 -193 -113t-72 -292q0 -174 77 -294q74 -114 176 -114q74 0 134 46l26 -51 q-84 -36 -157 -37q-171 0 -284 130.5t-113 319.5z" />
<glyph unicode="h" horiz-adv-x="981" d="M0 -5v1365h130v-600q106 144 272 145q156 0 229 -65q85 -75 86 -255v-590h-131v590q0 273 -191 273q-198 0 -265 -240v-623h-130z" />
<glyph unicode="i" horiz-adv-x="418" d="M0 1273q0 36 25.5 61.5t62.5 25.5q35 0 60.5 -25.5t25.5 -61.5t-25.5 -61.5t-60.5 -25.5q-36 0 -62 25.5t-26 61.5zM22 -5v887h130v-887h-130z" />
<glyph unicode="j" horiz-adv-x="538" d="M0 -297q139 0 139 310v878h128v-878q0 -354 -267 -354v44zM116 1278q0 35 25.5 60.5t61.5 25.5t61 -25.5t25 -60.5q0 -36 -25 -61.5t-61 -25.5q-35 0 -61 25t-26 62z" />
<glyph unicode="k" horiz-adv-x="855" d="M0 -5v1365h130v-1365h-130zM193 460l405 422h56l-356 -365l432 -528l-157 6z" />
<glyph unicode="l" horiz-adv-x="395" d="M0 -5v1365h130v-1365h-130z" />
<glyph unicode="m" horiz-adv-x="1464" d="M0 -5v887h130v-120q109 132 251 132q208 0 265 -149q112 149 265 149q288 0 288 -288v-611h-129v611q0 131 -39.5 187.5t-127.5 56.5q-148 0 -235 -212q1 -19 1 -32v-611h-130v611q0 131 -39 187.5t-127 56.5q-67 0 -130 -56q-71 -61 -113 -174v-625h-130z" />
<glyph unicode="n" horiz-adv-x="981" d="M0 -5v887h130v-122q106 144 272 145q156 0 229 -65q85 -75 86 -255v-590h-131v590q0 273 -191 273q-198 0 -265 -240v-623h-130z" />
<glyph unicode="o" horiz-adv-x="1151" d="M0 440q0 188 132.5 321t319.5 133q188 0 320.5 -133t132.5 -321q0 -189 -133 -322t-320 -133t-319.5 133t-132.5 322zM142 440q0 -170 91 -289.5t220 -119.5q127 0 218 119.5t91 289.5t-91 289.5t-218 119.5q-129 0 -220 -119.5t-91 -289.5z" />
<glyph unicode="p" horiz-adv-x="994" d="M0 -341v1209h129v-85q90 97 218 97q171 0 286 -131q111 -130 111 -319t-111 -317q-115 -132 -286 -132q-73 0 -157 36l26 51q59 -45 131 -45h3q101 0 177 116.5t76 290.5q0 181 -72 293t-193 112q-66 0 -126 -52.5t-83 -131.5v-992h-129z" />
<glyph unicode="q" horiz-adv-x="1009" d="M0 430q0 189 113 319.5t284 130.5q130 0 219 -97v85h128v-1209h-128v992q-24 80 -84 132t-126 52q-121 0 -193 -112t-72 -293q0 -174 77 -292q74 -115 176 -115q74 0 134 45l26 -51q-84 -36 -157 -36q-171 0 -284 132q-113 129 -113 317z" />
<glyph unicode="r" horiz-adv-x="622" d="M0 -5v887h130v-98q26 49 65 77q44 32 103 32t108 -33l-31 -60q-51 41 -103 41q-31 0 -55 -15q-86 -57 -86 -249q0 1 -1 3v-585h-130z" />
<glyph unicode="s" horiz-adv-x="762" d="M0 85l41 58q90 -115 213 -115q75 0 119.5 46.5t44.5 120.5q0 88 -80 145q-56 38 -165 112q-147 99 -147 236q0 100 81 157q72 49 176 49q61 0 125 -31t94 -73l-45 -49q-83 108 -184 108q-137 0 -150 -111q-1 -8 -1 -16q0 -79 88 -138q148 -100 189 -131q117 -88 117 -217 q0 -13 -1 -26q-8 -104 -80 -165.5t-181 -61.5q-151 0 -254 102z" />
<glyph unicode="t" horiz-adv-x="618" d="M0 840v42h83v102h131v-102h168v-42h-168v-557q0 -134 36.5 -188.5t126.5 -54.5v-45q-294 0 -294 288v557h-83z" />
<glyph unicode="u" horiz-adv-x="983" d="M0 292v590h130v-590q0 -273 192 -273q124 0 201 130q44 74 63 165v568h131v-887h-131v153q-99 -174 -271 -174q-315 0 -315 318z" />
<glyph unicode="v" horiz-adv-x="988" d="M0 882h130l288 -699l295 699h45l-381 -908z" />
<glyph unicode="w" horiz-adv-x="1460" d="M0 882h142l238 -676l276 699l279 -700l253 677h40l-335 -908l-287 695l-276 -695z" />
<glyph unicode="x" horiz-adv-x="1008" d="M0 -5l358 441l-308 446h153l236 -342l274 342h50l-301 -375l355 -512h-154l-281 408l-333 -409z" />
<glyph unicode="y" horiz-adv-x="1005" d="M0 889h146l303 -700l281 700h46l-495 -1230h-45l144 358z" />
<glyph unicode="z" horiz-adv-x="885" d="M0 -5l468 845h-426v42h600l-468 -844h488v-43h-662z" />
<glyph unicode="{" horiz-adv-x="588" d="M0 683q59 19 90 90q23 51 22 95q-2 38 -3 74q0 385 148 581q135 180 373 180v-44q-173 0 -272 -176.5t-99 -480.5q0 -61 5 -127q5 -61 -15.5 -117t-55.5 -75q34 -19 55 -75t16 -118q-5 -66 -5 -127q0 -304 99 -480.5t272 -176.5v-44q-238 0 -373 180q-148 197 -148 582 q0 35 3 73q1 44 -22 96q-31 71 -90 90z" />
<glyph unicode="|" horiz-adv-x="344" d="M24 -3v1433h56v-1433h-56z" />
<glyph unicode="}" horiz-adv-x="876" d="M0 -294q173 0 272 176.5t99 480.5q0 61 -5 127q-5 61 16 117t55 76q-34 19 -54.5 75t-16.5 117q5 66 5 127q0 304 -99 480.5t-272 176.5v44q239 0 373 -180q148 -197 148 -582q0 -35 -1 -73q-2 -44 20 -95q32 -71 90 -90q-58 -19 -90 -90q-23 -51 -20 -96q1 -38 1 -74 q0 -385 -148 -581q-134 -180 -373 -180v44z" />
<glyph unicode="~" horiz-adv-x="1084" d="M0 686q93 160 232 161q107 0 196 -47q116 -60 190 -60q108 0 211 74l13 -16q-93 -160 -231 -161q-108 0 -196 47q-117 60 -190 60q-109 0 -211 -74z" />
<glyph unicode="&#xa5;" horiz-adv-x="1109" d="M0 1407l151 2l407 -694l362 692h47l-380 -723h281v-41h-285v-138h285v-41h-285v-469h-136v469h-307v41h307l-1 138h-306v41h282z" />
<glyph unicode="&#xad;" horiz-adv-x="1132" d="M0 420v56h868v-56h-868z" />
<glyph unicode="&#x2000;" horiz-adv-x="851" />
<glyph unicode="&#x2001;" horiz-adv-x="1703" />
<glyph unicode="&#x2002;" horiz-adv-x="851" />
<glyph unicode="&#x2003;" horiz-adv-x="1703" />
<glyph unicode="&#x2004;" horiz-adv-x="567" />
<glyph unicode="&#x2005;" horiz-adv-x="425" />
<glyph unicode="&#x2006;" horiz-adv-x="283" />
<glyph unicode="&#x2007;" horiz-adv-x="283" />
<glyph unicode="&#x2008;" horiz-adv-x="212" />
<glyph unicode="&#x2009;" horiz-adv-x="340" />
<glyph unicode="&#x200a;" horiz-adv-x="94" />
<glyph unicode="&#x2010;" horiz-adv-x="1132" d="M0 420v56h868v-56h-868z" />
<glyph unicode="&#x2011;" horiz-adv-x="1132" d="M0 420v56h868v-56h-868z" />
<glyph unicode="&#x2012;" horiz-adv-x="1132" d="M0 420v56h868v-56h-868z" />
<glyph unicode="&#x2013;" horiz-adv-x="1288" d="M0 420v56h1024v-56h-1024z" />
<glyph unicode="&#x2014;" horiz-adv-x="2312" d="M0 420v56h2048v-56h-2048z" />
<glyph unicode="&#x202f;" horiz-adv-x="340" />
<glyph unicode="&#x205f;" horiz-adv-x="425" />
<glyph unicode="&#x25fc;" horiz-adv-x="881" d="M0 0v882h882v-882h-882z" />
</font>
</defs>
</svg>
